<?xml version="1.0" encoding="UTF-8"?>
<!DOCTYPE svg PUBLIC "-//W3C//DTD SVG 1.1//EN" "http://www.w3.org/Graphics/SVG/1.1/DTD/svg11.dtd">
<!-- Creator: CorelDRAW 2020 (64-Bit) -->
<svg xmlns="http://www.w3.org/2000/svg" xml:space="preserve" width="165.67mm" height="200mm" version="1.1" style="shape-rendering:geometricPrecision; text-rendering:geometricPrecision; image-rendering:optimizeQuality; fill-rule:evenodd; clip-rule:evenodd"
viewBox="0 0 16565.94 19998.71"
 xmlns:xlink="http://www.w3.org/1999/xlink"
 xmlns:xodm="http://www.corel.com/coreldraw/odm/2003">
 <defs>
  <style type="text/css">
   <![CDATA[
    .fil0 {fill:url(#id0)}
   ]]>
  </style>
  <linearGradient id="id0" gradientUnits="userSpaceOnUse" x1="2426" y1="17572.66" x2="14139.94" y2="5858.74">
   <stop offset="0" style="stop-opacity:1; stop-color:#FF7A00"/>
   <stop offset="0.25098" style="stop-opacity:1; stop-color:#FD7A02"/>
   <stop offset="0.74902" style="stop-opacity:1; stop-color:#0456FB"/>
   <stop offset="1" style="stop-opacity:1; stop-color:#0055FF"/>
  </linearGradient>
 </defs>
 <g id="Capa_x0020_1">
  <metadata id="CorelCorpID_0Corel-Layer"/>
  <g id="_1931495916704">
   <g>
    <path class="fil0" d="M5477.49 16473.52c2117.61,1250.65 4890.75,966.2 6710.13,-853.16 2156.53,-2156.54 2156.53,-5652.76 0,-7809.3l-3904.65 -3904.65 -2905.11 2901.6 0 0c-1075.27,-1075.27 -1075.27,-2829.37 0,-3904.65l2903.36 -2903.36 5858.71 5858.73c3234.61,3234.6 3234.74,8479.2 0,11713.93 -3234.66,3234.68 -8479.18,3234.74 -11713.92,0 -3234.66,-3234.67 -3234.66,-8479.26 0,-11713.93 1011.24,1011.23 1305.13,2417.03 757.24,3735.31 -660.21,1588.61 -546.12,3423.08 342.05,4927.02l3781.52 -3781.53 0.07 0.07c1073.77,1073.77 1073.77,2830.74 0,3904.52l-1829.39 1829.39z"/>
   </g>
  </g>
 </g>
</svg>
