<?xml version="1.0" encoding="UTF-8"?>
<!DOCTYPE svg PUBLIC "-//W3C//DTD SVG 1.1//EN" "http://www.w3.org/Graphics/SVG/1.1/DTD/svg11.dtd">
<!-- Creator: CorelDRAW 2021.5 -->
<svg xmlns="http://www.w3.org/2000/svg" xml:space="preserve" width="300mm" height="423.451mm" version="1.1" style="shape-rendering:geometricPrecision; text-rendering:geometricPrecision; image-rendering:optimizeQuality; fill-rule:evenodd; clip-rule:evenodd"
viewBox="0 0 9521.1 13439.06"
 xmlns:xlink="http://www.w3.org/1999/xlink"
 xmlns:xodm="http://www.corel.com/coreldraw/odm/2003">
 <defs>
  <style type="text/css">
   <![CDATA[
    .fil0 {fill:#264DE4;fill-rule:nonzero}
    .fil1 {fill:#2965F1;fill-rule:nonzero}
    .fil2 {fill:#EBEBEB;fill-rule:nonzero}
    .fil4 {fill:white;fill-rule:nonzero}
    .fil3 {fill:white;fill-rule:nonzero}
   ]]>
  </style>
 </defs>
 <g id="Capa_x0020_1">
  <metadata id="CorelCorpID_0Corel-Layer"/>
  <g id="_2651604537584">
   <polygon class="fil0" points="4754.73,13439.06 866.48,12359.65 -0,2641.08 9521.1,2641.08 8653.71,12358.13 4754.73,13439.06 "/>
   <polygon class="fil1" points="7911.12,11739.38 8652.37,3435.72 4760.55,3435.72 4760.55,12612.84 7911.12,11739.38 "/>
   <polygon class="fil2" points="1986.38,7040.2 2093.21,8232.13 4760.55,8232.13 4760.55,7040.2 1986.38,7040.2 "/>
   <polygon class="fil2" points="1771.73,4627.67 1880.08,5819.64 4760.55,5819.64 4760.55,4627.67 1771.73,4627.67 "/>
   <polygon class="fil2" points="4760.55,10135.8 4755.33,10137.19 3427.85,9778.74 3342.99,8828.13 2146.47,8828.13 2313.46,10699.64 4755.06,11377.44 4760.55,11375.92 4760.55,10135.8 "/>
   <polygon class="fil3" points="2240.73,0 3684.38,0 3684.38,603.71 2844.44,603.71 2844.44,1207.42 3684.38,1207.42 3684.38,1811.13 2240.73,1811.13 2240.73,0 "/>
   <polygon class="fil3" points="3973.11,0 5416.75,0 5416.75,524.96 4576.81,524.96 4576.81,629.95 5416.75,629.95 5416.75,1837.37 3973.11,1837.37 3973.11,1286.17 4813.05,1286.17 4813.05,1181.16 3973.11,1181.16 3973.11,0 "/>
   <polygon class="fil3" points="5705.48,0 7149.13,0 7149.13,524.96 6309.2,524.96 6309.2,629.95 7149.13,629.95 7149.13,1837.37 5705.48,1837.37 5705.48,1286.17 6545.43,1286.17 6545.43,1181.16 5705.48,1181.16 5705.48,0 "/>
   <polygon class="fil4" points="7527.08,7040.2 7742.26,4627.67 4756.43,4627.67 4756.43,5819.64 6436,5819.64 6327.54,7040.2 4756.43,7040.2 4756.43,8232.13 6224.17,8232.13 6085.82,9777.98 4756.43,10136.81 4756.43,11376.86 7199.98,10699.64 7217.91,10498.27 7497.99,7360.28 7527.08,7040.2 "/>
  </g>
 </g>
</svg>
