<?xml version="1.0" encoding="UTF-8"?>
<!DOCTYPE svg PUBLIC "-//W3C//DTD SVG 1.1//EN" "http://www.w3.org/Graphics/SVG/1.1/DTD/svg11.dtd">
<!-- Creator: CorelDRAW 2021.5 -->
<svg xmlns="http://www.w3.org/2000/svg" xml:space="preserve" width="227.646mm" height="422mm" version="1.1" style="shape-rendering:geometricPrecision; text-rendering:geometricPrecision; image-rendering:optimizeQuality; fill-rule:evenodd; clip-rule:evenodd"
viewBox="0 0 2250.64 4172.14"
 xmlns:xlink="http://www.w3.org/1999/xlink"
 xmlns:xodm="http://www.corel.com/coreldraw/odm/2003">
 <defs>
  <style type="text/css">
   <![CDATA[
    .fil1 {fill:#EE741D}
    .fil0 {fill:#42799B}
   ]]>
  </style>
 </defs>
 <g id="Capa_x0020_1">
  <metadata id="CorelCorpID_0Corel-Layer"/>
  <g id="java-seeklogo.com.cdr">
   <path class="fil0" d="M778.74 1581.58c-37.96,8.78 -287.67,62.31 -284.61,115.38 73.01,132.75 1054.27,4.13 1208.35,-13.89 -42.24,29.06 -83.89,60.91 -133.6,76.34 -144.58,44.87 -1134.63,124.62 -1250.34,-3.01 -123.34,-108.95 376.19,-195.54 460.56,-188.28 1.55,4.51 -1.89,8.97 -0.35,13.45zm1003.89 6.04c69.62,-29.47 152.06,-58.61 253.86,-23.2 87.01,30.27 136.69,90.35 132.67,184.63 -8.9,208.6 -255.84,298.65 -424.67,342.47 90.62,-62.76 278.85,-174.97 302.81,-298.12 16.83,-86.55 -1.74,-138.13 -74.34,-183.67 -54.62,-34.27 -128.61,-24.58 -190.32,-22.11zm-1126.88 319.55c-70.91,79.55 33.49,94.2 125,102.89 234.93,22.31 489.92,26.51 717.66,-42.7 36.87,27.98 78.67,46.06 115.57,74.02 -256.22,79.18 -826.61,145 -1030.71,25.93 -32.72,-19.07 -77.18,-50.63 -64.01,-78.16 37.33,-56.88 80.81,-68.85 136.5,-81.98zm66.69 310.78c-1.89,8.9 -3.8,17.78 -5.7,26.71 83.92,112.76 548.99,68.45 693.85,23.33l139.35 83.41c-223.41,89.38 -456.33,104.82 -694.97,78.17 -255.2,-28.51 -325.18,-186.59 -132.52,-211.62zm-223.06 213.54c-64.68,8.29 -236.24,21.51 -242.13,104.85 -6.94,144.54 1732.31,152.35 1752.16,-74.88 0,-6.38 0,-12.79 0,-19.17 241.21,197.05 -769.72,271.48 -824.84,273.94 -88.52,3.96 -1207.57,19.24 -1123.29,-157.02 40.3,-84.22 331.91,-175.29 438.1,-127.73zm-18.29 347.31c382.09,62.85 1338.16,51.78 1689.33,-184.74 12.74,255.43 -1063.2,272.6 -1165.79,265.32 -116.74,-2.91 -456.44,1.52 -554.02,-86.31 10.16,1.9 20.32,3.82 30.48,5.73z"/>
   <path class="fil1" d="M-0 4098.83l61.49 73.31c77.51,-37.5 205.53,-86.05 206.06,-327.87 0.13,-58.32 0,-791.68 0,-791.68l-131.27 0 0 836.32c0,108.91 -54.9,142.33 -136.27,209.92zm1408.53 -4098.83c4.38,145.21 0.92,296.17 -95.44,415.66 -216.98,253.01 -751.75,435.32 -507.73,809.3 58.92,90.31 202.58,244.54 291.24,310.07 -102.04,-203.16 -332.99,-433.1 -69.83,-690.87 139.05,-122.72 267.73,-228.15 370.76,-382.7 160.92,-258.16 44.77,-431.56 11,-461.47zm340.35 580.27c-239.86,66.79 -547.87,192.07 -620.14,445.08 -40.94,217.96 177.35,347.92 176.73,447.73 4.56,71.9 -26.21,117.52 -61.09,175.62 275.05,-182.7 243.44,-286.9 81.51,-512.3 -161.93,-225.4 246.69,-437.22 423,-556.13zm405.62 2762.07l0 -50.19 -17.92 0 0 -10.23 48.01 0 0 10.23 -17.88 0 0 50.19 -12.2 0zm37.79 0l0 -60.42 18.26 0 10.95 41.22 10.84 -41.22 18.29 0 0 60.42 -11.32 0 0 -47.57 -11.99 47.57 -11.75 0 -11.96 -47.57 0 47.57 -11.32 0zm-550.67 -19.67l18.76 78.13c77.56,-30.64 220.9,-69.15 294.42,-8.68 28.14,23.14 36.07,54.97 36.07,65.11 0,10.13 -2.16,96.95 -2.16,96.95l-145.05 0c-100.45,4.29 -228.51,68.08 -233.8,183.4 -0.91,19.96 0,46.52 0,76.34 17.95,113.51 125.65,143.05 212.16,133.79 40.4,-4.33 82.99,-17.34 115.45,-36.88 32.47,-19.54 61.19,-44.15 61.19,-44.15l13.14 70.89 98.86 0 -0.68 -496.25c-0.72,-52.08 -18.09,-96.23 -65.72,-129.5 -47.62,-33.28 -110.4,-40.53 -150.81,-41.24 -90.16,-1.57 -167.19,25.1 -251.83,52.09zm347.68 304.79l0 160.22c-55.03,49.62 -166.23,112.61 -232.62,42.56 -21.63,-22.82 -29.6,-54.02 -27.88,-79.3 4.29,-63.16 44.86,-115.14 116.09,-120.94 42.12,-3.43 144.41,-2.54 144.41,-2.54zm-1574.51 -304.79l18.76 78.13c77.56,-30.64 220.9,-69.15 294.42,-8.68 28.14,23.14 36.07,54.97 36.07,65.11 0,10.13 -2.16,96.95 -2.16,96.95l-145.05 0c-100.45,4.29 -228.51,68.08 -233.8,183.4 -0.91,19.96 0,46.52 0,76.34 17.95,113.51 125.65,143.05 212.16,133.79 40.4,-4.33 82.99,-17.34 115.45,-36.88 32.47,-19.54 61.19,-44.15 61.19,-44.15l13.14 70.89 98.86 0 -0.68 -496.25c-0.72,-52.08 -18.09,-96.23 -65.72,-129.5 -47.62,-33.28 -110.4,-40.53 -150.81,-41.24 -90.17,-1.57 -167.19,25.1 -251.84,52.09zm347.68 304.79l0 160.22c-55.03,49.62 -166.23,112.61 -232.62,42.56 -21.63,-22.82 -29.6,-54.02 -27.88,-79.3 4.29,-63.16 44.86,-115.14 116.09,-120.94 42.12,-3.43 144.41,-2.54 144.41,-2.54zm215.04 -343.35l134.47 0c48.16,146.96 105.24,315.69 154.89,520.02 72.37,-163.76 115.91,-345.38 139.28,-521.21l135.67 0c-44.69,228.25 -104.07,444.37 -204.11,654.83l-158.48 0 -201.72 -653.63z"/>
  </g>
 </g>
</svg>
