<?xml version="1.0" encoding="UTF-8"?>
<!DOCTYPE svg PUBLIC "-//W3C//DTD SVG 1.1//EN" "http://www.w3.org/Graphics/SVG/1.1/DTD/svg11.dtd">
<!-- Creator: CorelDRAW 2021.5 -->
<svg xmlns="http://www.w3.org/2000/svg" xml:space="preserve" width="300mm" height="422.336mm" version="1.1" style="shape-rendering:geometricPrecision; text-rendering:geometricPrecision; image-rendering:optimizeQuality; fill-rule:evenodd; clip-rule:evenodd"
viewBox="0 0 5641.34 7941.8"
 xmlns:xlink="http://www.w3.org/1999/xlink"
 xmlns:xodm="http://www.corel.com/coreldraw/odm/2003">
 <defs>
  <style type="text/css">
   <![CDATA[
    .fil1 {fill:#E34E26;fill-rule:nonzero}
    .fil4 {fill:#EBEBEB;fill-rule:nonzero}
    .fil2 {fill:#EF662A;fill-rule:nonzero}
    .fil3 {fill:white;fill-rule:nonzero}
    .fil0 {fill:white;fill-rule:nonzero}
   ]]>
  </style>
 </defs>
 <g id="Capa_x0020_1">
  <metadata id="CorelCorpID_0Corel-Layer"/>
  <g id="_2651364050656">
   <g>
    <g>
     <g>
      <polygon class="fil0" points="533.12,0 891.08,0 891.08,353.66 1218.53,353.66 1218.53,0 1576.49,0 1576.49,1070.97 1218.54,1070.97 1218.54,712.34 891.1,712.34 891.1,1070.97 533.14,1070.97 533.12,0 "/>
      <polygon class="fil0" points="2047.21,355.15 1732.09,355.15 1732.09,0 2720.47,0 2720.47,355.15 2405.21,355.15 2405.21,1070.97 2047.23,1070.97 2047.21,355.15 "/>
      <polygon class="fil0" points="2877.34,0 3250.59,0 3480.19,376.31 3709.55,0 4082.94,0 4082.94,1070.97 3726.46,1070.97 3726.46,540.14 3480.19,920.93 3474.03,920.92 3227.58,540.13 3227.58,1070.96 2877.34,1070.97 "/>
      <polygon class="fil0" points="4261.09,0 4619.15,0 4619.15,716.97 5122.54,716.96 5122.54,1070.96 4261.09,1070.97 "/>
     </g>
    </g>
   </g>
   <g id="Guides_to_delete">
    <g>
     <polygon class="fil1" points="513.63,7301.61 -0,1540.23 5641.34,1540.23 5127.07,7302.04 2819.3,7941.8 "/>
     <polygon class="fil2" points="2820.66,2011.15 2820.66,7452.41 4686.78,6935.13 5126.47,2011.15 "/>
     <polygon class="fil3" points="1050.88,2717.85 1241.36,4854.7 3690.52,4854.7 3608.33,5771.24 2819.76,5984.44 2032.68,5771.54 1980.05,5183.05 1270.77,5183.05 1372.19,6317.49 2819.57,6719.5 4268.83,6317.49 4463.11,4148.18 1887.64,4148.18 1822.98,3424.55 4524.97,3424.55 4527.16,3424.55 4590.44,2717.85 "/>
     <g>
      <polygon class="fil4" points="2820.66,2717.85 1050.88,2717.85 1241.36,4854.7 2820.66,4854.7 2820.66,4148.18 1887.64,4148.18 1822.98,3424.55 2820.66,3424.55 "/>
      <polygon class="fil4" points="2820.66,5984.13 2819.76,5984.44 2032.68,5771.54 1980.05,5183.05 1270.77,5183.05 1372.19,6317.49 2819.57,6719.5 2820.66,6719.18 "/>
     </g>
    </g>
   </g>
  </g>
 </g>
</svg>
