<?xml version="1.0" encoding="UTF-8"?>
<!DOCTYPE svg PUBLIC "-//W3C//DTD SVG 1.1//EN" "http://www.w3.org/Graphics/SVG/1.1/DTD/svg11.dtd">
<!-- Creator: CorelDRAW 2021.5 -->
<svg xmlns="http://www.w3.org/2000/svg" xml:space="preserve" width="300mm" height="203.743mm" version="1.1" style="shape-rendering:geometricPrecision; text-rendering:geometricPrecision; image-rendering:optimizeQuality; fill-rule:evenodd; clip-rule:evenodd"
viewBox="0 0 20516.26 13933.47"
 xmlns:xlink="http://www.w3.org/1999/xlink"
 xmlns:xodm="http://www.corel.com/coreldraw/odm/2003">
 <defs>
  <style type="text/css">
   <![CDATA[
    .fil2 {fill:#EB8A35}
    .fil3 {fill:#687889}
    .fil1 {fill:#EB8A35;fill-rule:nonzero}
    .fil0 {fill:#687889;fill-rule:nonzero}
   ]]>
  </style>
 </defs>
 <g id="Capa_x0020_1">
  <metadata id="CorelCorpID_0Corel-Layer"/>
  <g id="_2651602065056">
   <g>
    <path class="fil0" d="M4932.62 12693.38l-791.63 0c-27.9,-1336.07 -105.08,-2592.5 -231.2,-3769.53l-6.92 0 -1205.28 3769.53 -602.76 0 -1198.01 -3769.53 -7.02 0c-88.85,1130.41 -144.78,2386.84 -168.04,3769.53l-721.75 0c46.62,-1681.64 163.36,-3258.11 350.23,-4729.65l981.09 0 1142.08 3475.26 7.02 0 1149.14 -3475.26 938.76 0c205.56,1723.51 326.94,3300.34 364.29,4729.65z"/>
    <path class="fil0" d="M8365.87 9203.95c-322.3,1748.99 -747.5,3020.1 -1275.26,3813.04 -411.26,610.99 -861.76,916.48 -1352.31,916.48 -130.8,0 -292.01,-39.45 -483.38,-117.67l0 -421.64c93.45,13.7 203.17,20.97 329.33,20.97 228.82,0 413.3,-63.2 553.65,-189.47 168.01,-153.81 252.04,-326.73 252.04,-518.34 0,-130.93 -65.56,-399.31 -196.14,-805.58l-868.78 -2697.79 777.68 0 623.53 2017.64c140.11,458.11 198.53,777.93 175.17,960.26 341.02,-910.87 579.26,-1903.56 714.83,-2977.9l749.65 0z"/>
    <polygon class="fil1" points="18903.78,12693.38 16654.69,12693.38 16654.69,7963.72 17411.47,7963.72 17411.47,12111.62 18903.78,12111.62 "/>
    <path class="fil2" d="M16066.23 12807.49l-869.37 -428.66c77.39,-63.55 150.94,-132.01 217.49,-211.3 369.03,-433.89 553.75,-1076.24 553.75,-1926.55 0,-1564.68 -614.22,-2347.48 -1842.75,-2347.48 -602.51,0 -1072.09,198.43 -1408.45,595.87 -369.16,434.38 -553.5,1074.2 -553.5,1919.73 0,831.47 163.33,1441.4 490.3,1828.8 299.04,350.2 749.79,525.47 1352.55,525.47 224.97,0 431.53,-27.65 619.19,-83.1l1132.07 658.79 308.7 -531.56zm-2816.68 -1060.29l0 0c-191.61,-308.22 -287.48,-802.95 -287.48,-1485.1 0,-1191.12 362.14,-1786.96 1086.04,-1786.96 378.48,0 656.27,142.5 833.97,427.24 191.37,308.46 287.24,798.9 287.24,1471.54 0,1200.5 -362.14,1801.01 -1086.04,1801.01 -378.34,0 -656.31,-142.25 -833.73,-427.73z"/>
    <path class="fil1" d="M11833.55 11382.47c0,401.11 -147.38,730.33 -441.19,988.02 -293.99,256.47 -688.91,385.12 -1183.64,385.12 -462.51,0 -910.98,-147.96 -1345.24,-441.65l203.17 -406.26c373.7,186.86 711.99,280.11 1015.71,280.11 284.85,0 507.72,-63.34 669.04,-188.63 160.98,-126.16 257.44,-302.05 257.44,-525.26 0,-280.94 -195.9,-520.97 -555.17,-722.23 -331.85,-182.06 -994.83,-562.2 -994.83,-562.2 -359.27,-261.97 -539.32,-543.26 -539.32,-1006.53 0,-383.11 134.26,-692.78 402.53,-928.38 268.9,-236.09 615.78,-354.14 1040.63,-354.14 439.05,0 838.22,117.23 1197.84,350.68l-182.68 405.89c-307.59,-130.45 -611.06,-195.9 -910.25,-195.9 -242.63,0 -429.73,58.29 -560.19,175.52 -131.14,116.26 -212.13,265.78 -212.13,448.12 0,280.07 200.09,523.08 569.5,728.29 336.01,182.23 1015.19,569.63 1015.19,569.63 369.52,261.6 553.61,540.39 553.61,999.83z"/>
    <path class="fil3" d="M19853.42 6379.38c-457.42,-11.42 -811.53,34.23 -1108.71,160.04 -85.74,34.2 -222.62,34.2 -234.43,142.84 46.03,45.66 51.5,119.83 91.82,183.03 68.46,114.22 188.15,268.28 297.03,348.54 119.97,91.48 240.03,182.58 365.95,262.57 222.62,137.72 474.21,217.39 690.98,354.63 126.16,79.88 251.49,182.68 377.65,268.65 62.57,45.65 102.31,120.07 182.54,148.31l0 -17.27c-40.18,-51.26 -51.5,-125.57 -91.24,-183.03 -57.11,-56.76 -114.32,-108.51 -171.57,-165.41 -165.86,-222.83 -371.8,-416.97 -594.18,-576.97 -183.02,-126.06 -583.3,-297.52 -657.23,-508.34 0,0 -5.96,-6.09 -11.56,-11.7 125.68,-11.56 274.61,-57.35 394.43,-92.03 194,-51.26 371.21,-39.7 571.16,-91 91.58,-23.01 183.03,-51.74 274.85,-79.88l0 -51.74c-103.38,-102.66 -177.32,-240.03 -285.92,-337.08 -291.19,-251.34 -611.59,-496.85 -942.95,-702.89 -177.45,-114.36 -406.03,-188.28 -594.66,-285.72 -68.22,-34.34 -182.44,-51.26 -222.62,-108.75 -102.9,-125.68 -160.25,-291.19 -234.42,-439.98 -165.51,-313.96 -325.87,-662.36 -468.5,-994.42 -102.79,-222.72 -165.72,-445.41 -291.43,-651.25 -588.92,-971.68 -1228.75,-1559.97 -2211.64,-2137.25 -211.55,-120.27 -462.89,-171.6 -731.31,-234.46 -143.08,-5.99 -285.82,-17.1 -428.66,-22.7 -91.58,-40.18 -183.16,-148.87 -263.05,-200.26 -325.87,-205.63 -1165.58,-651.29 -1405.71,-62.79 -154.3,371.69 228.57,737.26 360.09,925.93 97.06,131.28 222.97,280.07 291.19,428.45 40.05,97.19 51.5,200.23 91.69,302.95 91.34,251.42 176.97,531.49 297.14,765.92 62.75,120.03 131.18,245.95 211.2,353.97 46.14,63.27 125.92,91.44 143.09,194.65 -79.78,114.11 -85.98,285.58 -131.67,428.56 -205.55,645.82 -125.67,1445.83 165.86,1920.04 91.24,142.88 308.63,457.25 600.16,336.94 257.06,-102.62 199.95,-428.39 274.26,-713.97 17.03,-69.05 5.57,-114.36 39.8,-160.01l0 11.56c79.88,159.77 160.15,313.72 234.43,474.21 177.32,279.73 485.67,571.26 743.11,765.37 136.75,103.28 245.4,280.11 416.86,343.17l0 -17.27 -11.32 0c-34.37,-51.3 -85.63,-74.31 -131.42,-114.12 -102.9,-102.9 -216.91,-228.71 -297.27,-342.96 -239.9,-319.88 -451.65,-674.37 -639.83,-1040.07 -91.68,-177.56 -171.46,-371.66 -245.88,-548.73 -34.19,-68.22 -34.19,-171.43 -91.44,-205.59 -85.98,125.57 -211.3,234.32 -274.12,388.13 -108.64,245.98 -119.96,548.86 -160.25,863.31 -22.78,5.96 -11.35,0 -22.78,11.32 -182.68,-45.69 -245.53,-234.18 -314.34,-393.74 -171.33,-406.24 -200.2,-1057.72 -51.4,-1526.33 39.84,-119.76 211.79,-496.92 142.88,-611.21 -34.47,-109.06 -148.69,-171.29 -211.44,-257.37 -74.14,-108.58 -154.64,-245.46 -205.56,-365.7 -137.23,-319.95 -206.15,-674.37 -354.25,-994.32 -68.67,-148.79 -188.87,-303.16 -285.72,-440.05 -108.85,-154.34 -228.68,-262.84 -314.55,-445.52 -28.38,-63.03 -68.43,-165.92 -22.88,-234.32 11.32,-45.79 34.44,-63.03 80.23,-74.59 73.93,-62.79 285.58,17.06 359.75,51.4 211.54,85.46 388.72,165.93 565.69,285.68 80.13,57.32 165.86,165.83 268.52,194.69l120.2 0c182.79,39.63 388.72,11.07 560.29,62.71 302.64,97.06 576.87,239.97 822.75,394.26 748.36,474.38 1365.66,1148.86 1782.63,1954.51 68.7,131.25 97.57,251.39 160.28,388.24 120.07,280.66 268.76,566.35 388.48,840.37 119.97,268.65 234.53,542.64 406.13,765.85 85.49,119.86 428.52,182.68 582.85,245.63 113.97,51.3 291.39,97.08 394.3,159.8 194.38,119.82 388.27,257.16 571.4,388.79 91.24,68.57 377.03,211.3 394.23,325.76z"/>
    <path class="fil3" d="M14024.36 1413.15c-96.91,0 -165.27,11.63 -234.29,28.66l0 11.52 11.22 0c46.13,91.2 126.16,154.47 182.89,234.43 46.03,91.44 85.97,182.54 131.66,274.02 5.71,-5.53 11.18,-11.52 11.18,-11.52 80.51,-56.86 120.44,-148.31 120.44,-285.68 -34.47,-40.18 -39.94,-79.88 -68.67,-120.03 -34.23,-57.04 -108.65,-85.59 -154.43,-131.39z"/>
    <path class="fil1" d="M20398.1 12692.89l118.17 0 0 -579.5 -177.66 0 -144.74 395.06 -157.55 -395.06 -171.33 0 0 579.5 111.83 0 0 -440.95 6.44 0 164.92 440.95 85.25 0 164.68 -440.95 0 440.95zm-954.13 0l0 0 125.29 0 0 -481.13 164.19 0 0 -98.37 -460.02 0 0 98.37 170.53 0 0 481.13z"/>
   </g>
  </g>
 </g>
</svg>
