<?xml version="1.0" encoding="UTF-8"?>
<!DOCTYPE svg PUBLIC "-//W3C//DTD SVG 1.1//EN" "http://www.w3.org/Graphics/SVG/1.1/DTD/svg11.dtd">
<!-- Creator: CorelDRAW 2020 (64-Bit) -->
<svg xmlns="http://www.w3.org/2000/svg" xml:space="preserve" width="113.4mm" height="74.7397mm" version="1.1" style="shape-rendering:geometricPrecision; text-rendering:geometricPrecision; image-rendering:optimizeQuality; fill-rule:evenodd; clip-rule:evenodd"
viewBox="0 0 8479.7 5588.8"
 xmlns:xlink="http://www.w3.org/1999/xlink"
 xmlns:xodm="http://www.corel.com/coreldraw/odm/2003">
 <defs>
  <style type="text/css">
   <![CDATA[
    .str0 {stroke:black;stroke-width:14.96;stroke-miterlimit:22.9256}
    .fil6 {fill:black}
    .fil3 {fill:#007FC7}
    .fil0 {fill:#4CB44D}
    .fil1 {fill:#C12B2F}
    .fil2 {fill:#CF9532}
    .fil4 {fill:black;fill-rule:nonzero}
    .fil5 {fill:#4CB44D;fill-rule:nonzero}
   ]]>
  </style>
 </defs>
 <g id="Capa_x0020_1">
  <metadata id="CorelCorpID_0Corel-Layer"/>
  <g id="_1921450544560">
   <g>
    <path class="fil0" d="M40.43 703.28l579.52 0 0 -579.52 785.16 0 0 579.52 579.52 0 0 785.16 -579.52 0 0 579.52 -785.16 0 0 -579.52 -579.52 0 0 -785.16zm785.16 0l373.88 0 0 -373.88 -373.88 0 0 373.88zm373.88 785.16l-373.88 0 0 373.88 373.88 0 0 -373.88zm205.64 -579.52l0 373.88 373.88 0 0 -373.88 -373.88 0zm-785.16 373.88l0 -373.88 -373.88 0 0 373.88 373.88 0zm579.52 -373.88l0 373.88 -373.88 0 0 -373.88 373.88 0z"/>
    <path class="fil1" d="M2335.03 1095.86l284.72 -284.72 0 -402.66 402.66 0 284.72 -284.72 284.72 284.72 402.66 0 0 402.66 284.72 284.72 -284.72 284.72 0 402.66c-134.22,0 -268.43,0 -402.66,0l-284.72 284.72 -284.72 -284.72c-134.22,0 -268.43,0 -402.66,0l0 -402.66 -284.72 -284.72zm288.16 -2.65l202.2 212.8 0 271.59 271.59 0 210.15 199.55 210.15 -199.55c99.07,0 172.52,0 271.59,0l0 -271.59 199.55 -210.15 -199.55 -210.15 0 -271.59 -271.59 0 -210.15 -199.55 -210.15 199.55 -271.59 0 0 271.59 -202.2 207.51z"/>
    <path class="fil2" d="M5521.22 0l320.77 566.46 651.33 -5.62 -330.51 560.81 330.51 560.81 -651.33 -5.62 -320.77 566.46 -320.77 -566.46 -651.33 5.62 330.51 -560.81 -330.51 -560.81 651.33 5.62 320.77 -566.46zm0 419.32l193.92 354.7 393.75 -3.51 -199.81 351.15 199.81 351.15 -393.75 -3.51 -193.92 354.7 -193.92 -354.7 -393.75 3.51 199.81 -351.15 -199.81 -351.15 393.75 3.51 193.92 -354.7z"/>
    <path class="fil3" d="M8323.85 1809.03c-157.79,157.79 -408.85,155.75 -572.23,-18.19l-114.58 -114.57 -132.76 132.76c-153.31,153.31 -401.87,153.31 -555.19,0 -157.79,-157.79 -155.75,-408.85 18.19,-572.23l114.57 -114.58 -132.76 -132.76c-153.31,-153.31 -153.31,-401.87 0,-555.19 157.79,-157.79 408.85,-155.75 572.23,18.19l114.58 114.57 132.76 -132.76c153.31,-153.31 401.87,-153.31 555.19,0 157.79,157.79 155.75,408.85 -18.19,572.23l-114.57 114.58 132.76 132.76c153.31,153.31 153.31,401.87 0,555.19zm-690.65 -426.27l264.68 -264.07 -258.13 -258.74 -264.68 264.07 258.13 258.74zm-406.51 -115.7l-132.18 132.19c-73,73 -73,191.37 0,264.37 73,73 191.37,73 264.37,0l132.19 -132.18 -264.38 -264.38zm264.38 -555.19l-132.19 -132.18c-73,-73 -191.37,-73 -264.37,0 -73,73 -73,191.37 0,264.37l132.18 132.19c88.13,-88.13 176.25,-176.25 264.38,-264.38zm555.19 264.38l132.18 -132.19c73,-73 73,-191.37 0,-264.37 -73,-73 -191.37,-73 -264.37,0l-132.19 132.18 264.38 264.38zm132.18 687.37c-73,73 -191.37,73 -264.37,0l-132.19 -132.18c88.13,-88.13 176.25,-176.25 264.38,-264.38l132.18 132.19c73,73 73,191.37 0,264.37z"/>
   </g>
   <path class="fil4" d="M990.91 4572.86c-89.06,43.72 -205.37,65.58 -348.67,65.58 -184.59,0 -330.86,-55.05 -439.34,-165.7 -108.22,-110.38 -162.46,-257.46 -162.46,-441.5 0,-193.49 60.45,-351.64 181.62,-474.7 120.9,-123.06 276.88,-184.59 468.22,-184.59 119.82,0 219.94,15.38 300.63,46.68l0 252.06c-82.85,-48.58 -176.77,-72.59 -281.48,-72.59 -119.82,0 -215.35,38.05 -287.14,114.42 -71.52,76.64 -107.41,176.5 -107.41,299.83 0,120.09 34,216.97 102.01,290.1 68.01,73.14 160.03,109.84 275.81,109.84 109.29,0 208.6,-26.18 298.2,-79.08l0 239.64zm139.8 -551.88c0,-191.88 56.13,-348.13 168.13,-468.49 111.99,-120.36 259.88,-180.54 443.93,-180.54 174.88,0 315.75,58.29 422.62,174.6 106.59,116.58 160.03,266.36 160.03,449.06 0,190.8 -55.59,345.7 -166.51,464.45 -110.92,119.01 -256.1,178.38 -435.84,178.38 -175.69,0 -318.18,-57.48 -427.75,-172.71 -109.83,-115.24 -164.61,-263.39 -164.61,-444.74zm274.45 -14.3c0,119.28 28.6,216.43 86.09,292.27 57.48,75.56 136.28,113.35 236.4,113.35 102.28,0 181.89,-36.16 238.84,-108.76 56.94,-72.32 85.28,-169.75 85.28,-292 0,-127.64 -27.53,-228.31 -82.85,-302.52 -55.33,-73.95 -133.32,-110.92 -233.98,-110.92 -102.28,0 -182.97,37.78 -241.81,113.89 -58.56,75.83 -87.97,174.07 -87.97,294.7zm593.44 -976.11l-262.31 275.81 -185.13 0 218.32 -275.81 229.12 0zm1544.46 1586.56l-300.63 0 -192.15 -318.71c-39.4,-65.85 -71.78,-108.22 -97.15,-127.11 -25.36,-19.17 -52.08,-28.61 -80.69,-28.61l-79.07 0 0 474.43 -260.96 0 0 -1224.67 429.36 0c291.46,0 437.19,110.65 437.19,331.94 0,83.39 -24.3,154.9 -73.14,214.27 -48.58,59.64 -115.77,101.47 -201.05,125.76l0 3.24c56.4,18.89 118.75,81.23 187.29,186.48l231 362.97zm-749.69 -1026.31l0 352.72 128.19 0c60.99,0 110.37,-17.81 147.35,-53.44 37.24,-35.62 55.86,-79.88 55.86,-133.31 0,-110.65 -66.12,-165.97 -198.62,-165.97l-132.77 0zm869.51 1026.31l0 -1224.67 423.15 0c434.76,0 652.27,198.9 652.27,596.95 0,189.18 -60.99,341.12 -182.7,455.81 -121.71,114.69 -278.78,171.9 -471.19,171.9l-421.53 0zm260.96 -1011.2l0 797.73 142.49 0c123.88,0 221.03,-36.97 291.73,-110.65 70.44,-73.95 105.79,-173.8 105.79,-299.83 0,-121.71 -36.98,-216.7 -110.65,-284.98 -73.68,-68.27 -169.75,-102.28 -287.68,-102.28l-141.68 0zm944.01 415.06c0,-191.88 56.13,-348.13 168.13,-468.49 111.99,-120.36 259.88,-180.54 443.93,-180.54 174.88,0 315.75,58.29 422.62,174.6 106.59,116.58 160.03,266.36 160.03,449.06 0,190.8 -55.59,345.7 -166.51,464.45 -110.92,119.01 -256.1,178.38 -435.84,178.38 -175.69,0 -318.18,-57.48 -427.75,-172.71 -109.83,-115.24 -164.61,-263.39 -164.61,-444.74zm274.45 -14.3c0,119.28 28.6,216.43 86.09,292.27 57.48,75.56 136.28,113.35 236.4,113.35 102.28,0 181.89,-36.16 238.84,-108.76 56.94,-72.32 85.28,-169.75 85.28,-292 0,-127.64 -27.53,-228.31 -82.85,-302.52 -55.33,-73.95 -133.32,-110.92 -233.98,-110.92 -102.28,0 -182.97,37.78 -241.81,113.89 -58.56,75.83 -87.97,174.07 -87.97,294.7zm1127.24 610.44l0 -1224.67 435.03 0c133.31,0 236.13,25.37 308.19,75.84 72.33,50.73 108.49,120.63 108.49,210.23 0,66.66 -22.4,124.68 -67.2,174.87 -44.8,49.92 -101.2,84.47 -169.21,103.63l0 2.97c85.28,10.53 154.36,42.37 206.72,95 52.35,52.62 78.53,118.74 78.53,198.35 0,111.19 -39.4,199.7 -118.48,265.28 -79.07,65.58 -187.02,98.5 -324.11,98.5l-457.97 0zm260.96 -1030.09l0 302.79 124.14 0c59.64,0 106.6,-14.3 140.87,-42.91 34.28,-28.34 51.27,-68.01 51.27,-119.28 0,-93.91 -68.55,-140.6 -205.64,-140.6l-110.65 0zm0 499.52l0 335.99 154.91 0c66.12,0 117.66,-15.11 154.63,-45.88 37.24,-30.49 55.87,-72.86 55.87,-127.11 0,-51.82 -18.63,-91.76 -55.33,-120.36 -36.97,-28.34 -89.33,-42.65 -157.33,-42.65l-152.75 0zm1908.78 530.56l-284.71 0 -91.75 -280.66 -445.02 0 -90.14 280.66 -283.09 0 448.25 -1224.67 306.84 0 439.62 1224.67zm-438 -482.26l-139.25 -424.5c-8.91,-26.99 -15.11,-62.61 -18.9,-106.86l-7.01 0c-3.24,35.89 -10.25,70.43 -21.59,103.63l-139.8 427.74 326.54 0z"/>
   <path class="fil5" d="M540.25 5552.04c-49.91,24.51 -115.11,36.76 -195.44,36.76 -103.47,0 -185.45,-30.86 -246.26,-92.88 -60.66,-61.86 -91.06,-144.3 -91.06,-247.47 0,-108.46 33.88,-197.1 101.8,-266.08 67.77,-68.97 155.2,-103.47 262.44,-103.47 67.17,0 123.29,8.62 168.52,26.17l0 141.28c-46.44,-27.23 -99.07,-40.69 -157.76,-40.69 -67.17,0 -120.72,21.33 -160.96,64.14 -40.09,42.96 -60.2,98.93 -60.2,168.06 0,67.31 19.06,121.62 57.17,162.61 38.12,40.99 89.7,61.56 154.59,61.56 61.27,0 116.94,-14.67 167.16,-44.32l0 134.32zm94.39 -623.51c0,-21.94 7.72,-39.63 23.3,-53.4 15.43,-13.77 35.24,-20.57 59.6,-20.57 24.8,0 44.78,6.95 60.2,21.02 15.43,14.07 22.99,31.62 22.99,52.95 0,21.48 -7.72,39.47 -23.45,53.85 -15.58,14.37 -35.55,21.48 -59.75,21.48 -24.06,0 -43.71,-7.26 -59.45,-21.78 -15.58,-14.37 -23.45,-32.37 -23.45,-53.55zm10.59 648.32l0 -490.1 142.64 0 0 490.1 -142.64 0zm728.95 0l-142.19 0 0 -74.87 -2.27 0c-36.61,57.93 -86.68,86.82 -150.21,86.82 -114.05,0 -171.08,-68.82 -171.08,-206.47l0 -295.58 143.1 0 0 282.26c0,73.21 28.74,109.97 86.07,109.97 28.59,0 51.43,-10.14 68.68,-30.25 17.09,-19.97 25.72,-47.19 25.72,-81.53l0 -280.45 142.19 0 0 490.1zm602.8 0l-142.8 0 0 -69.13 -2.12 0c-34.64,54 -85.77,81.08 -153.38,81.08 -62.32,0 -111.93,-21.93 -148.69,-65.95 -36.76,-44.01 -55.22,-104.07 -55.22,-180 0,-80.33 20.73,-145.07 61.87,-194.38 41.14,-49.16 95,-73.66 161.56,-73.66 63.83,0 108.46,22.99 133.87,69.13l2.12 0 0 -292.55 142.8 0 0 725.47zm-140.53 -277.42c0,-33.13 -9.98,-60.51 -29.96,-82.13 -19.97,-21.78 -44.77,-32.68 -74.57,-32.68 -34.94,0 -62.33,13.92 -82.29,41.45 -19.97,27.68 -29.95,65.04 -29.95,112.39 0,44.93 9.68,79.57 28.89,103.92 19.21,24.35 45.69,36.61 79.26,36.61 31.62,0 57.64,-12.86 78.06,-38.58 20.41,-25.71 30.55,-59.14 30.55,-100.28l0 -40.69zm282.72 -183.03c22.08,-12.41 51.74,-22.39 88.8,-30.11 37.06,-7.71 68.82,-11.49 95.15,-11.49 137.05,0 205.57,68.68 205.57,206.03l0 296.03 -135.98 0 0 -71.4 -1.82 0c-33.43,55.66 -82.29,83.35 -146.73,83.35 -46.29,0 -83.51,-13.16 -111.49,-39.63 -27.83,-26.47 -41.9,-62.47 -41.9,-108 0,-93.94 56.11,-148.54 168.06,-163.82l134.63 -18.31c0,-57.02 -29.65,-85.47 -88.95,-85.47 -58.54,0 -113.6,17.7 -165.34,53.1l0 -110.27zm161.71 238.4c-51.74,6.8 -77.6,30.1 -77.6,70.04 0,18.31 6.36,33.13 18.91,44.32 12.56,11.19 29.49,16.79 50.67,16.79 29.35,0 53.4,-10.28 72.31,-31.01 18.91,-20.57 28.29,-46.29 28.29,-76.99l0 -35.09 -92.57 11.95zm823.5 222.06l-142.8 0 0 -69.13 -2.12 0c-34.64,54 -85.77,81.08 -153.38,81.08 -62.32,0 -111.93,-21.93 -148.69,-65.95 -36.76,-44.01 -55.22,-104.07 -55.22,-180 0,-80.33 20.73,-145.07 61.87,-194.38 41.14,-49.16 95,-73.66 161.56,-73.66 63.83,0 108.46,22.99 133.87,69.13l2.12 0 0 -292.55 142.8 0 0 725.47zm-140.53 -277.42c0,-33.13 -9.98,-60.51 -29.96,-82.13 -19.97,-21.78 -44.77,-32.68 -74.57,-32.68 -34.94,0 -62.33,13.92 -82.29,41.45 -19.97,27.68 -29.95,65.04 -29.95,112.39 0,44.93 9.68,79.57 28.89,103.92 19.21,24.35 45.69,36.61 79.26,36.61 31.62,0 57.64,-12.86 78.06,-38.58 20.41,-25.71 30.55,-59.14 30.55,-100.28l0 -40.69zm701.41 38.12l0 239.3 -146.27 0 0 -686.44 236.28 0c170.78,0 256.1,72.3 256.1,217.06 0,70.34 -25.72,126.76 -77.3,169.12 -51.58,42.36 -116.02,62.78 -193.47,60.97l-75.33 0zm0 -333.69l0 221.6 63.38 0c86.08,0 129.03,-37.37 129.03,-112.24 0,-72.91 -42.66,-109.36 -127.67,-109.36l-64.74 0zm422.8 112.54c22.08,-12.41 51.73,-22.39 88.79,-30.11 37.06,-7.71 68.82,-11.49 95.15,-11.49 137.05,0 205.57,68.68 205.57,206.03l0 296.03 -135.98 0 0 -71.4 -1.82 0c-33.43,55.66 -82.29,83.35 -146.73,83.35 -46.29,0 -83.5,-13.16 -111.48,-39.63 -27.83,-26.47 -41.9,-62.47 -41.9,-108 0,-93.94 56.11,-148.54 168.05,-163.82l134.63 -18.31c0,-57.02 -29.65,-85.47 -88.95,-85.47 -58.54,0 -113.6,17.7 -165.33,53.1l0 -110.27zm161.7 238.4c-51.74,6.8 -77.6,30.1 -77.6,70.04 0,18.31 6.36,33.13 18.91,44.32 12.56,11.19 29.49,16.79 50.67,16.79 29.35,0 53.4,-10.28 72.31,-31.01 18.91,-20.57 28.29,-46.29 28.29,-76.99l0 -35.09 -92.57 11.95zm639.1 216.31c-21.63,11.8 -54.3,17.7 -98.02,17.7 -103.92,0 -155.95,-54.61 -155.95,-163.97l0 -231.28 -80.62 0 0 -106.8 80.62 0 0 -107.7 142.34 -40.84 0 148.54 111.63 0 0 106.8 -111.63 0 0 206.47c0,52.34 20.58,78.51 62.02,78.51 15.88,0 32.53,-4.84 49.61,-14.22l0 106.79zm399.65 -354.56c-17.4,-9.99 -38.58,-14.98 -63.38,-14.98 -32.53,0 -58.24,12.41 -77.3,37.21 -19.06,24.81 -28.59,58.84 -28.59,102.26l0 235.82 -143.09 0 0 -490.1 143.09 0 0 92.13 1.82 0c23.6,-67.02 66.56,-100.6 128.88,-100.6 16.94,0 29.8,1.97 38.58,5.75l0 132.51zm62.62 -288.01c0,-21.94 7.72,-39.63 23.3,-53.4 15.43,-13.77 35.24,-20.57 59.6,-20.57 24.8,0 44.78,6.95 60.2,21.02 15.43,14.07 22.99,31.62 22.99,52.95 0,21.48 -7.72,39.47 -23.45,53.85 -15.58,14.37 -35.55,21.48 -59.75,21.48 -24.06,0 -43.71,-7.26 -59.45,-21.78 -15.58,-14.37 -23.45,-32.37 -23.45,-53.55zm10.59 648.32l0 -490.1 142.64 0 0 490.1 -142.64 0zm1039.66 0l-142.79 0 0 -279.69c0,-75.03 -27.23,-112.55 -81.99,-112.55 -25.41,0 -46.44,11.34 -63.38,34.19 -16.79,22.69 -25.26,50.52 -25.26,83.35l0 274.7 -142.64 0 0 -283.17c0,-72.76 -27.08,-109.06 -81.07,-109.06 -26.93,0 -48.41,10.89 -64.44,32.68 -16.19,21.63 -24.21,50.37 -24.21,86.07l0 273.49 -143.1 0 0 -490.1 143.1 0 0 76.69 1.82 0c17.09,-28.13 39.78,-49.91 68.22,-65.5 28.29,-15.43 58.24,-23.14 89.55,-23.14 68.82,0 115.87,30.86 141.28,92.57 37.81,-61.71 92.72,-92.57 164.88,-92.57 106.65,0 160.04,65.8 160.04,197.55l0 304.5zm93.02 -242.79c0,-80.77 24.21,-144.15 72.46,-190.14 48.4,-46.14 113.29,-69.13 194.83,-69.13 78.81,0 141.43,22.69 187.87,67.92 46.44,45.37 69.59,106.34 69.59,182.88 0,80.32 -23.75,144.3 -71.4,191.8 -47.5,47.65 -111.94,71.4 -193.17,71.4 -79.72,0 -143.09,-22.84 -189.84,-68.53 -46.89,-45.53 -70.34,-107.7 -70.34,-186.21zm144.92 -1.81c0,97.72 39.93,146.73 119.65,146.73 76.54,0 114.81,-50.22 114.81,-150.81 0,-95.6 -38.58,-143.56 -115.72,-143.56 -37.51,0 -66.55,12.86 -87.43,38.58 -20.88,25.72 -31.31,62.01 -31.31,109.06zm946.63 244.6l-142.35 0 0 -273.49c0,-79.11 -28.44,-118.75 -85.46,-118.75 -27.23,0 -49.76,10.59 -67.77,31.77 -18,21.03 -27.08,48.1 -27.08,80.78l0 279.69 -143.09 0 0 -490.1 143.09 0 0 77.9 1.82 0c35.7,-59.9 88.34,-89.85 157.77,-89.85 108.61,0 163.07,67.31 163.07,202.09l0 299.96zm109.51 -648.32c0,-21.94 7.72,-39.63 23.3,-53.4 15.43,-13.77 35.24,-20.57 59.6,-20.57 24.8,0 44.78,6.95 60.2,21.02 15.43,14.07 22.99,31.62 22.99,52.95 0,21.48 -7.72,39.47 -23.45,53.85 -15.58,14.37 -35.55,21.48 -59.75,21.48 -24.06,0 -43.71,-7.26 -59.45,-21.78 -15.58,-14.37 -23.45,-32.37 -23.45,-53.55zm10.59 648.32l0 -490.1 142.64 0 0 490.1 -142.64 0zm241.42 -242.79c0,-80.77 24.21,-144.15 72.46,-190.14 48.4,-46.14 113.29,-69.13 194.83,-69.13 78.81,0 141.43,22.69 187.87,67.92 46.44,45.37 69.59,106.34 69.59,182.88 0,80.32 -23.75,144.3 -71.4,191.8 -47.5,47.65 -111.94,71.4 -193.17,71.4 -79.72,0 -143.09,-22.84 -189.84,-68.53 -46.89,-45.53 -70.34,-107.7 -70.34,-186.21zm144.92 -1.81c0,97.72 39.93,146.73 119.65,146.73 76.54,0 114.81,-50.22 114.81,-150.81 0,-95.6 -38.58,-143.56 -115.72,-143.56 -37.51,0 -66.55,12.86 -87.43,38.58 -20.88,25.72 -31.31,62.01 -31.31,109.06z"/>
   <rect class="fil6 str0" x="7.48" y="2528.38" width="8464.74" height="179.58"/>
  </g>
 </g>
</svg>
