<?xml version="1.0" encoding="UTF-8"?>
<!DOCTYPE svg PUBLIC "-//W3C//DTD SVG 1.1//EN" "http://www.w3.org/Graphics/SVG/1.1/DTD/svg11.dtd">
<!-- Creator: CorelDRAW 2021.5 -->
<svg xmlns="http://www.w3.org/2000/svg" xml:space="preserve" width="300mm" height="157.734mm" version="1.1" style="shape-rendering:geometricPrecision; text-rendering:geometricPrecision; image-rendering:optimizeQuality; fill-rule:evenodd; clip-rule:evenodd"
viewBox="0 0 21996.83 11565.5"
 xmlns:xlink="http://www.w3.org/1999/xlink"
 xmlns:xodm="http://www.corel.com/coreldraw/odm/2003">
 <defs>
  <style type="text/css">
   <![CDATA[
    .fil3 {fill:#000004;fill-rule:nonzero}
    .fil1 {fill:#6181B6;fill-rule:nonzero}
    .fil2 {fill:white;fill-rule:nonzero}
    .fil0 {fill:url(#id0);fill-rule:nonzero}
   ]]>
  </style>
  <radialGradient id="id0" gradientUnits="userSpaceOnUse" gradientTransform="matrix(1.31304 -0 -0 1.31304 -2066 -652)" cx="6599.06" cy="2081.79" r="2483.19" fx="6599.06" fy="2081.79">
   <stop offset="0" style="stop-opacity:1; stop-color:white"/>
   <stop offset="0.501961" style="stop-opacity:1; stop-color:#4C6B97"/>
   <stop offset="1" style="stop-opacity:1; stop-color:#231F20"/>
  </radialGradient>
 </defs>
 <g id="Capa_x0020_1">
  <metadata id="CorelCorpID_0Corel-Layer"/>
  <g id="_2651604488464">
   <g>
    <ellipse class="fil0" cx="10998.42" cy="5782.75" rx="10998.42" ry="5782.75"/>
    <ellipse class="fil1" cx="10998.42" cy="5782.75" rx="10568.8" ry="5353.13"/>
    <g>
     <path class="fil2" d="M13137.95 7518.44c0,0 524.16,-2698.05 524.16,-2698.05 120.29,-610.05 17.18,-1065.46 -292.15,-1349.04 -300.73,-274.98 -816.27,-412.44 -1572.44,-412.44l-910.81 0 257.79 -1340.44c8.61,-51.58 0,-103.11 -34.36,-146.07 -34.36,-42.97 -77.33,-60.15 -128.89,-60.15l-1254.5 0c-85.93,0 -154.68,60.15 -171.86,137.47l-558.52 2861.3c-51.57,-326.51 -171.86,-601.48 -378.08,-824.88 -369.47,-421.05 -945.17,-635.84 -1727.09,-635.84l-2414.5 0c-85.93,0 -154.68,60.15 -171.86,137.47l-1125.61 5808.56c-8.61,51.58 0,103.11 34.36,146.07 34.36,42.97 77.33,60.15 128.89,60.15l1263.11 0c85.93,0 154.68,-60.15 171.86,-137.47l274.98 -1400.58 936.57 0c489.77,0 910.82,-51.57 1228.72,-154.68 335.11,-111.71 635.84,-292.15 902.21,-541.33 214.82,-197.62 395.26,-421.05 532.73,-661.63l-223.4 1160c-8.61,51.58 0,103.11 34.36,146.08 34.36,42.96 77.33,60.14 128.89,60.14l1254.54 0c85.93,0 154.68,-60.14 171.86,-137.47l618.66 -3179.24 859.25 0c369.47,0 472.59,68.75 506.95,103.11 25.78,25.79 77.32,128.89 17.18,446.8l-498.37 2569.16c-8.61,51.57 0,103.11 34.36,146.07 34.36,42.97 77.33,60.15 128.89,60.15l1288.9 0.03c77.33,-25.79 146.07,-85.93 163.25,-163.25zm-5808.54 -2234.07c-77.33,403.84 -223.4,695.99 -438.23,859.25 -214.83,163.25 -567.12,249.18 -1031.1,249.18l-558.52 0 403.84 -2079.38 721.8 0c532.73,0 747.56,111.71 833.49,206.22 111.69,137.47 137.47,403.83 68.72,764.73z"/>
     <path class="fil2" d="M18499.69 3686.19c-369.48,-421.05 -945.17,-635.85 -1727.09,-635.85l-2431.68 -0.03c-85.93,0 -154.68,60.15 -171.86,137.47l-1125.61 5799.96c-8.61,51.58 0,103.11 34.36,146.08 34.36,42.96 77.32,60.15 128.89,60.15l1263.11 0c85.93,0 154.68,-60.15 171.86,-137.47l274.97 -1400.58 936.57 0c489.76,0 910.81,-51.57 1228.71,-154.68 335.11,-111.71 635.84,-292.15 902.21,-541.33 223.4,-206.22 412.44,-438.23 549.91,-687.42 137.47,-249.18 240.58,-524.16 300.73,-824.88 146.1,-747.53 34.39,-1331.79 -335.09,-1761.41zm-1314.65 1598.19c-77.33,403.84 -223.4,695.99 -438.23,859.25 -214.83,163.25 -567.12,249.18 -1031.1,249.18l-558.52 0 403.84 -2079.38 721.8 0c532.73,0 747.56,111.71 833.49,206.22 120.29,137.47 146.04,403.83 68.72,764.73z"/>
    </g>
    <g>
     <path class="fil3" d="M6427.2 4141.56c481.19,0 799.09,85.93 962.35,266.37 163.25,180.43 197.61,481.19 111.71,910.81 -85.93,446.81 -257.8,773.35 -506.95,962.35 -249.19,189.04 -627.27,283.55 -1134.22,283.55l-764.77 0.03 472.59 -2423.08 859.28 -0.03zm-3076.13 4880.58l1263.11 0 300.73 -1538.05 1082.64 -0.04c481.2,0 867.85,-51.57 1177.18,-154.68 309.33,-103.11 584.3,-266.36 842.06,-506.94 214.83,-197.62 386.65,-412.45 515.55,-644.45 128.89,-232.01 223.4,-489.77 274.97,-773.34 137.47,-687.42 34.36,-1220.15 -300.73,-1606.8 -335.11,-386.65 -867.85,-575.69 -1598.22,-575.69l-2431.68 0.03 -1125.61 5799.96z"/>
     <path class="fil3" d="M9735.31 1684.12l1254.5 0 -300.73 1538.05 1117.04 0c704.6,0 1185.78,120.29 1452.15,369.47 266.37,249.19 343.69,644.45 240.58,1194.36l-524.16 2698.04 -1271.68 0 498.37 -2569.15c60.15,-292.15 34.36,-489.77 -60.14,-592.87 -94.51,-103.11 -309.33,-163.26 -627.27,-163.26l-1005.32 0 -644.45 3325.32 -1254.5 -0.04 1125.61 -5799.93z"/>
     <path class="fil3" d="M16282.83 4141.56c481.19,0 799.09,85.93 962.35,266.37 163.26,180.43 197.62,481.19 111.72,910.81 -85.93,446.81 -257.8,773.35 -506.95,962.35 -249.19,189.04 -627.27,283.55 -1134.22,283.55l-764.77 0.03 472.59 -2423.08 859.28 -0.03zm-3076.13 4880.58l1263.11 0 300.73 -1538.05 1082.68 -0.04c481.19,0 867.85,-51.57 1177.18,-154.68 309.33,-103.11 584.3,-266.36 842.06,-506.94 214.83,-197.62 386.66,-412.45 515.55,-644.45 128.89,-232.01 223.4,-489.77 274.98,-773.34 137.47,-687.42 34.36,-1220.15 -300.73,-1606.8 -335.12,-386.65 -867.85,-575.69 -1598.23,-575.69l-2431.71 0.03 -1125.61 5799.96z"/>
    </g>
   </g>
  </g>
 </g>
</svg>
