<?xml version="1.0" encoding="UTF-8"?>
<!DOCTYPE svg PUBLIC "-//W3C//DTD SVG 1.1//EN" "http://www.w3.org/Graphics/SVG/1.1/DTD/svg11.dtd">
<!-- Creator: CorelDRAW 2021.5 -->
<svg xmlns="http://www.w3.org/2000/svg" xml:space="preserve" width="300mm" height="422.002mm" version="1.1" style="shape-rendering:geometricPrecision; text-rendering:geometricPrecision; image-rendering:optimizeQuality; fill-rule:evenodd; clip-rule:evenodd"
viewBox="0 0 28908.2 40664.41"
 xmlns:xlink="http://www.w3.org/1999/xlink"
 xmlns:xodm="http://www.corel.com/coreldraw/odm/2003">
 <defs>
  <style type="text/css">
   <![CDATA[
    .fil2 {fill:#FEFEFE;fill-rule:nonzero}
    .fil1 {fill:#F3C20E;fill-rule:nonzero}
    .fil3 {fill:#EFEFF0;fill-rule:nonzero}
    .fil0 {fill:#E7A61F;fill-rule:nonzero}
    .fil4 {fill:white;fill-rule:nonzero}
   ]]>
  </style>
 </defs>
 <g id="Capa_x0020_1">
  <metadata id="CorelCorpID_0Corel-Layer"/>
  <g id="_2651605186000">
   <polygon class="fil0" points="28908.2,7947.45 14454.3,7947.45 -0,7947.45 2708.86,37334.38 14454.3,40664.41 26195.06,37334.38 "/>
   <polygon class="fil1" points="14454.2,10341.36 14454.2,38175.79 23965.24,35479.54 26281.42,10341.36 "/>
   <polygon class="fil2" points="22021.17,13947.28 7392.1,13947.28 6375.41,24950.59 6396.98,24881.72 18823.5,24881.72 18418.01,29535.97 14454.2,30678.7 10429.66,29518.77 10188.15,26701.87 6534.73,26701.87 7056.9,32330.99 14454.2,34431.51 21851.39,32330.99 22869.61,21284.25 9683.57,21284.25 9851.53,17600.71 19004.07,17600.71 19138.66,19709.15 22824.75,19709.15 "/>
   <path class="fil3" d="M10188.26 26701.97l-3653.44 0 521.88 5629.02 7397.6 2095.84 0 -3748.14 -4024.54 -1159.92 -241.5 -2816.8zm4266.04 -12754.59l-7062.4 0 -1016.79 11003.21 21.97 -68.87 8057.22 0 0 -3597.47 -4262.08 0 167.96 -3683.54 4094.12 0 0 -3653.33z"/>
   <g>
    <path class="fil4" d="M11749.48 3603.38l-728.59 0 0 -333.58 -1842.13 0 0 2160.9c1470.95,0 2941.9,0 4412.85,0l0 -5430.69 -1842.13 0 0 3603.38z"/>
    <polygon class="fil4" points="15462.51,0 19729.46,0 19729.46,1551.62 17246.9,1551.62 17246.9,1861.93 19729.46,1861.93 19729.46,5430.66 15462.51,5430.66 15462.51,3801.49 17945.11,3801.49 17945.11,3491.14 15462.51,3491.14 15462.51,0 "/>
   </g>
  </g>
 </g>
</svg>
