<?xml version="1.0" encoding="UTF-8"?>
<!DOCTYPE svg PUBLIC "-//W3C//DTD SVG 1.1//EN" "http://www.w3.org/Graphics/SVG/1.1/DTD/svg11.dtd">
<!-- Creator: CorelDRAW 2020 (64-Bit) -->
<svg xmlns="http://www.w3.org/2000/svg" xml:space="preserve" width="265.517mm" height="43.2296mm" version="1.1" style="shape-rendering:geometricPrecision; text-rendering:geometricPrecision; image-rendering:optimizeQuality; fill-rule:evenodd; clip-rule:evenodd"
viewBox="0 0 27200.39 4428.58"
 xmlns:xlink="http://www.w3.org/1999/xlink"
 xmlns:xodm="http://www.corel.com/coreldraw/odm/2003">
 <defs>
  <style type="text/css">
   <![CDATA[
    .fil2 {fill:#0055FF;fill-rule:nonzero}
    .fil1 {fill:white;fill-rule:nonzero}
    .fil0 {fill:url(#id0)}
   ]]>
  </style>
  <linearGradient id="id0" gradientUnits="userSpaceOnUse" x1="497.09" y1="3600.63" x2="2897.27" y2="1200.45">
   <stop offset="0" style="stop-opacity:1; stop-color:#FF7A00"/>
   <stop offset="0.25098" style="stop-opacity:1; stop-color:#FD7A02"/>
   <stop offset="0.74902" style="stop-opacity:1; stop-color:#0456FB"/>
   <stop offset="1" style="stop-opacity:1; stop-color:#0055FF"/>
  </linearGradient>
 </defs>
 <g id="Capa_x0020_1">
  <metadata id="CorelCorpID_0Corel-Layer"/>
  <g id="_2711378083584">
   <g>
    <path class="fil0" d="M1122.34 3375.41c433.9,256.26 1002.11,197.97 1374.9,-174.82 441.87,-441.87 441.87,-1158.24 0,-1600.11l-800.06 -800.06 -595.26 594.54 0 0c-220.32,-220.32 -220.32,-579.74 0,-800.06l594.9 -594.9 1200.45 1200.45c662.77,662.77 662.79,1737.39 0,2400.17 -662.79,662.79 -1737.39,662.8 -2400.17,0 -662.79,-662.78 -662.79,-1737.4 0,-2400.17 207.2,207.2 267.42,495.25 155.15,765.36 -135.28,325.5 -111.9,701.39 70.09,1009.54l774.83 -774.83 0.01 0.01c220.02,220.02 220.02,580.02 0,800.04l-374.84 374.84z"/>
   </g>
   <g>
    <path class="fil1" d="M4228.98 2337.45c-48.9,3.26 -86.39,-4.07 -112.46,-22 -26.08,-17.93 -39.12,-44.82 -39.12,-80.67 0,-63.57 35.05,-97.79 105.13,-102.68l75.79 -4.9c76.61,-3.26 133.66,-26.48 171.14,-69.67 37.48,-43.19 56.23,-111.24 56.23,-204.14l0 -1136.84c0,-37.48 11.81,-68.04 35.45,-91.68 23.63,-23.63 54.19,-35.46 91.69,-35.46 39.11,0 70.08,11.82 92.9,35.46 22.82,23.63 34.23,54.19 34.23,91.68l0 1136.84c0,153.2 -36.26,269.33 -108.79,348.38 -72.53,79.06 -181.31,122.65 -326.37,130.8l-75.79 4.89zm1383.76 -1234.63c158.09,0 275.85,39.93 353.28,119.8 77.42,79.86 116.13,201.29 116.13,364.28l0 633.2c0,37.48 -10.6,66.41 -31.79,86.79 -21.19,20.38 -50.53,30.56 -88.01,30.56 -35.86,0 -64.39,-10.59 -85.57,-31.78 -21.19,-21.2 -31.78,-49.72 -31.78,-85.57l0 -90.46c-30.97,68.45 -77.02,121.02 -138.13,157.69 -61.12,36.67 -132.43,55.01 -213.92,55.01 -78.24,0 -149.55,-15.9 -213.92,-47.68 -64.38,-31.79 -115.31,-75.39 -152.8,-130.8 -37.48,-55.41 -56.23,-118.17 -56.23,-188.25 -1.63,-88.01 20.38,-156.87 66.01,-206.59 45.64,-49.71 119.8,-85.57 222.48,-107.57 102.68,-22 245.3,-33.01 427.84,-33.01l56.23 0 0 -70.9c0,-91.28 -18.75,-157.28 -56.23,-198.03 -37.48,-40.74 -97.79,-61.12 -180.91,-61.12 -57.05,0 -110.83,7.33 -161.36,22 -50.53,14.67 -105.95,35.86 -166.24,63.57 -44.01,24.44 -74.98,36.66 -92.91,36.66 -24.44,0 -44.41,-8.96 -59.9,-26.89 -15.48,-17.93 -23.22,-40.74 -23.22,-68.45 0,-24.44 6.93,-46.04 20.78,-64.79 13.86,-18.75 36.26,-37.08 67.23,-55.01 57.05,-30.97 123.87,-55.82 200.48,-74.57 76.6,-18.74 150.76,-28.11 222.48,-28.11zm-75.79 1056.16c89.64,0 162.99,-30.56 220.03,-91.69 57.05,-61.12 85.57,-139.75 85.57,-235.92l0 -63.57 -44.01 0c-127.13,0 -224.92,5.71 -293.38,17.11 -68.45,11.41 -117.35,30.56 -146.69,57.46 -29.34,26.89 -44.01,65.59 -44.01,116.12 0,58.68 21.2,106.77 63.57,144.25 42.38,37.48 95.35,56.23 158.92,56.23zm1730.92 -977.92c9.78,-24.45 24.04,-42.38 42.78,-53.79 18.75,-11.4 38.71,-17.11 59.9,-17.11 30.97,0 58.27,10.59 81.9,31.78 23.63,21.2 35.46,46.46 35.46,75.8 0,16.3 -3.27,31.78 -9.78,46.45l-466.96 990.14c-11.41,26.08 -28.93,46.05 -52.56,59.9 -23.63,13.85 -48.49,20.79 -74.57,20.79 -26.08,0 -50.93,-6.94 -74.57,-20.79 -23.63,-13.85 -41.15,-33.82 -52.56,-59.9l-466.96 -990.14c-6.52,-13.04 -9.78,-28.52 -9.78,-46.45 0,-29.34 13.04,-54.6 39.12,-75.8 26.07,-21.19 55.41,-31.78 88.01,-31.78 47.27,0 82.31,22.81 105.13,68.45l378.95 841.02 376.5 -838.57zm584.32 1156.39c-35.87,0 -65.6,-9.77 -89.24,-29.34 -23.63,-19.56 -35.45,-48.9 -35.45,-88.01l0 -992.59c0,-39.11 11.81,-68.86 35.45,-89.24 23.63,-20.37 53.37,-30.56 89.24,-30.56 35.86,0 65.19,10.19 88.01,30.56 22.81,20.38 34.23,50.13 34.23,89.24l0 992.59c0,39.11 -11.41,68.45 -34.23,88.01 -22.81,19.57 -52.15,29.34 -88.01,29.34zm0 -1469.32c-47.27,0 -84.76,-13.04 -112.46,-39.12 -27.71,-26.07 -41.56,-60.31 -41.56,-102.68 0,-42.38 13.85,-76.2 41.56,-101.46 27.7,-25.26 65.19,-37.89 112.46,-37.89 45.63,0 82.71,12.63 111.23,37.89 28.52,25.26 42.79,59.08 42.79,101.46 0,42.37 -13.86,76.61 -41.56,102.68 -27.71,26.08 -65.19,39.12 -112.46,39.12zm1400.87 1156.39c22.81,0 41.56,8.96 56.23,26.89 14.67,17.93 22,40.75 22,68.45 0,47.27 -29.34,87.2 -88.02,119.8 -57.04,32.6 -119.39,57.86 -187.03,75.79 -67.63,17.94 -132.42,26.9 -194.36,26.9 -189.07,0 -338.2,-55.01 -447.4,-165.03 -109.2,-110.02 -163.81,-260.38 -163.81,-451.07 0,-122.25 24.04,-230.63 72.12,-325.17 48.09,-94.53 115.73,-167.87 202.92,-220.03 87.2,-52.15 186.22,-78.24 297.04,-78.24 159.73,0 286.04,51.34 378.95,154.02 92.91,102.68 139.35,241.22 139.35,415.61 0,65.19 -29.34,97.79 -88.01,97.79l-755.45 0c16.3,252.64 137.72,378.95 364.28,378.95 60.31,0 112.46,-8.14 156.46,-24.44 44.01,-16.3 90.46,-37.49 139.35,-63.57 4.9,-3.26 18.34,-10.19 40.34,-20.79 22,-10.59 40.34,-15.89 55.01,-15.89zm-425.4 -740.78c-94.53,0 -170.32,30.15 -227.37,90.46 -57.04,60.31 -91.27,145.06 -102.68,254.26l630.76 0c-4.9,-110.83 -33.01,-195.99 -84.35,-255.48 -51.33,-59.49 -123.46,-89.24 -216.36,-89.24zm1410.65 -176.03c78.24,-4.89 117.35,28.53 117.35,100.24 0,35.86 -8.96,62.75 -26.89,80.67 -17.93,17.93 -48.9,28.53 -92.91,31.79l-73.34 7.33c-102.69,9.77 -178.88,45.64 -228.59,107.57 -49.72,61.94 -74.57,136.92 -74.57,224.92l0 559.86c0,39.11 -11.41,68.45 -34.23,88.01 -22.81,19.57 -52.15,29.34 -88.01,29.34 -35.87,0 -65.6,-9.77 -89.24,-29.34 -23.63,-19.56 -35.45,-48.9 -35.45,-88.01l0 -995.04c0,-37.48 11.81,-66.41 35.45,-86.79 23.63,-20.37 53.37,-30.56 89.24,-30.56 32.6,0 59.9,10.19 81.89,30.56 22,20.38 33.01,48.5 33.01,84.35l0 117.35c32.6,-71.71 79.86,-126.31 141.8,-163.81 61.94,-37.48 132.02,-59.49 210.25,-66l34.23 -2.45zm1068.38 1217.52c-39.11,0 -69.67,-11 -91.68,-33.01 -22,-22 -33.01,-51.74 -33.01,-89.24l0 -1479.11c0,-37.48 11,-67.23 33.01,-89.23 22,-22 52.56,-33.01 91.68,-33.01l899.7 0c37.48,0 66.41,8.96 86.79,26.89 20.37,17.93 30.56,43.19 30.56,75.79 0,32.6 -10.19,57.45 -30.56,74.57 -20.38,17.11 -49.31,25.67 -86.79,25.67l-777.45 0 0 542.74 728.56 0c37.48,0 66.41,8.96 86.79,26.89 20.37,17.93 30.56,43.19 30.56,75.79 0,32.6 -10.19,57.86 -30.56,75.79 -20.38,17.94 -49.31,26.9 -86.79,26.9l-728.56 0 0 569.64 777.45 0c78.23,0 117.35,33.42 117.35,100.24 0,32.6 -10.19,57.86 -30.56,75.79 -20.38,17.93 -49.31,26.89 -86.79,26.89l-899.7 0zm1916.73 -1222.4c102.68,0 194.36,26.08 275.04,78.24 80.67,52.15 143.43,125.49 188.25,220.03 44.82,94.53 67.23,203.74 67.23,327.6 0,122.25 -22,229.81 -66.01,322.72 -44,92.91 -106.35,164.62 -187.02,215.14 -80.68,50.53 -173.18,75.8 -277.49,75.8 -89.65,0 -168.69,-19.16 -237.15,-57.46 -68.45,-38.3 -120.62,-93.31 -156.47,-165.03l0 545.19c0,34.23 -11,61.53 -33.01,81.9 -21.99,20.38 -50.92,30.56 -86.79,30.56 -37.48,0 -68.04,-10.59 -91.68,-31.78 -23.63,-21.19 -35.45,-49.72 -35.45,-85.57l0 -1432.66c0,-35.86 11.4,-64.79 34.23,-86.79 22.81,-22 52.96,-33.01 90.46,-33.01 35.86,0 65.19,11 88.01,33.01 22.81,22 34.23,50.93 34.23,86.79l0 100.24c35.86,-71.72 88.02,-127.13 156.47,-166.24 68.45,-39.12 147.5,-58.68 237.15,-58.68zm-58.68 1043.94c107.58,0 190.7,-36.26 249.38,-108.79 58.67,-72.53 88.01,-175.62 88.01,-309.28 0,-135.28 -29.75,-240.4 -89.24,-315.37 -59.49,-74.98 -142.2,-112.46 -248.15,-112.46 -107.57,0 -190.29,36.66 -248.15,110.01 -57.86,73.34 -86.79,177.66 -86.79,312.93 0,135.28 28.93,239.59 86.79,312.93 57.86,73.35 140.58,110.02 248.15,110.02zm987.71 190.69c-35.87,0 -65.6,-9.77 -89.24,-29.34 -23.63,-19.56 -35.45,-48.9 -35.45,-88.01l0 -992.59c0,-39.11 11.81,-68.86 35.45,-89.24 23.63,-20.37 53.37,-30.56 89.24,-30.56 35.86,0 65.19,10.19 88.01,30.56 22.81,20.38 34.23,50.13 34.23,89.24l0 992.59c0,39.11 -11.41,68.45 -34.23,88.01 -22.81,19.57 -52.15,29.34 -88.01,29.34zm0 -1469.32c-47.27,0 -84.76,-13.04 -112.46,-39.12 -27.71,-26.07 -41.56,-60.31 -41.56,-102.68 0,-42.38 13.85,-76.2 41.56,-101.46 27.7,-25.26 65.19,-37.89 112.46,-37.89 45.63,0 82.71,12.63 111.23,37.89 28.52,25.26 42.79,59.08 42.79,101.46 0,42.37 -13.86,76.61 -41.56,102.68 -27.71,26.08 -65.19,39.12 -112.46,39.12zm1029.26 -78.24c-81.49,6.52 -141.8,32.19 -180.91,77.01 -39.11,44.83 -58.68,110.42 -58.68,196.81l0 68.45 242.04 0c34.23,0 60.71,8.55 79.45,25.67 18.74,17.11 28.11,40.33 28.11,69.67 0,29.34 -9.37,52.56 -28.11,69.68 -18.75,17.11 -45.23,25.66 -79.45,25.66l-242.04 0 0 894.8c0,39.12 -11.81,68.86 -35.45,89.24 -23.63,20.38 -53.38,30.56 -89.24,30.56 -35.86,0 -65.19,-10.18 -88.01,-30.56 -22.82,-20.38 -34.23,-50.12 -34.23,-89.24l0 -894.8 -146.69 0c-34.23,0 -60.72,-8.55 -79.45,-25.66 -18.75,-17.12 -28.12,-40.34 -28.12,-69.68 0,-29.34 9.37,-52.56 28.12,-69.67 18.74,-17.12 45.23,-25.67 79.45,-25.67l146.69 0 0 -31.79c0,-149.95 38.3,-267.7 114.9,-353.28 76.61,-85.56 184.99,-133.24 325.17,-143.02l63.57 -4.89c52.15,-3.26 90.05,2.45 113.68,17.12 23.63,14.67 35.45,38.29 35.45,70.89 0,57.05 -34.23,89.65 -102.68,97.79l-63.57 4.9zm762.78 312.93c158.09,0 275.85,39.93 353.28,119.8 77.42,79.86 116.13,201.29 116.13,364.28l0 633.2c0,37.48 -10.6,66.41 -31.79,86.79 -21.19,20.38 -50.53,30.56 -88.01,30.56 -35.86,0 -64.39,-10.59 -85.57,-31.78 -21.19,-21.2 -31.78,-49.72 -31.78,-85.57l0 -90.46c-30.97,68.45 -77.02,121.02 -138.13,157.69 -61.12,36.67 -132.43,55.01 -213.92,55.01 -78.24,0 -149.55,-15.9 -213.92,-47.68 -64.38,-31.79 -115.31,-75.39 -152.8,-130.8 -37.48,-55.41 -56.23,-118.17 -56.23,-188.25 -1.63,-88.01 20.38,-156.87 66.01,-206.59 45.64,-49.71 119.8,-85.57 222.48,-107.57 102.68,-22 245.3,-33.01 427.84,-33.01l56.23 0 0 -70.9c0,-91.28 -18.75,-157.28 -56.23,-198.03 -37.48,-40.74 -97.79,-61.12 -180.91,-61.12 -57.05,0 -110.83,7.33 -161.36,22 -50.53,14.67 -105.95,35.86 -166.24,63.57 -44.01,24.44 -74.98,36.66 -92.91,36.66 -24.44,0 -44.41,-8.96 -59.9,-26.89 -15.48,-17.93 -23.22,-40.74 -23.22,-68.45 0,-24.44 6.93,-46.04 20.78,-64.79 13.86,-18.75 36.26,-37.08 67.23,-55.01 57.05,-30.97 123.87,-55.82 200.48,-74.57 76.6,-18.74 150.76,-28.11 222.48,-28.11zm-75.79 1056.16c89.64,0 162.99,-30.56 220.03,-91.69 57.05,-61.12 85.57,-139.75 85.57,-235.92l0 -63.57 -44.01 0c-127.13,0 -224.92,5.71 -293.38,17.11 -68.45,11.41 -117.35,30.56 -146.69,57.46 -29.34,26.89 -44.01,65.59 -44.01,116.12 0,58.68 21.2,106.77 63.57,144.25 42.38,37.48 95.35,56.23 158.92,56.23zm1525.55 -1056.16c285.23,0 427.84,160.54 427.84,481.63l0 635.65c0,37.48 -11,66.41 -33.01,86.79 -21.99,20.38 -52.56,30.56 -91.68,30.56 -37.48,0 -67.23,-10.59 -89.24,-31.78 -22,-21.2 -33,-49.72 -33,-85.57l0 -623.43c0,-101.05 -19.97,-175.21 -59.9,-222.48 -39.93,-47.27 -102.28,-70.9 -187.03,-70.9 -99.42,0 -179.29,30.97 -239.59,92.91 -60.3,61.94 -90.46,145.06 -90.46,249.37l0 574.53c0,35.86 -11,64.38 -33.01,85.57 -21.99,21.19 -51.74,31.78 -89.23,31.78 -37.49,0 -67.64,-10.59 -90.46,-31.78 -22.82,-21.2 -34.23,-49.72 -34.23,-85.57l0 -995.04c0,-34.23 11.81,-62.34 35.45,-84.34 23.63,-22 53.37,-33.01 89.24,-33.01 35.86,0 64.38,10.59 85.56,31.79 21.2,21.19 31.79,48.9 31.79,83.12l0 100.23c39.11,-71.71 93.72,-126.31 163.8,-163.8 70.09,-37.48 149.14,-56.23 237.15,-56.23zm889.91 1234.63c-35.87,0 -65.6,-9.77 -89.24,-29.34 -23.63,-19.56 -35.45,-48.9 -35.45,-88.01l0 -992.59c0,-39.11 11.81,-68.86 35.45,-89.24 23.63,-20.37 53.37,-30.56 89.24,-30.56 35.86,0 65.19,10.19 88.01,30.56 22.81,20.38 34.23,50.13 34.23,89.24l0 992.59c0,39.11 -11.41,68.45 -34.23,88.01 -22.81,19.57 -52.15,29.34 -88.01,29.34zm0 -1469.32c-47.27,0 -84.76,-13.04 -112.46,-39.12 -27.71,-26.07 -41.56,-60.31 -41.56,-102.68 0,-42.38 13.85,-76.2 41.56,-101.46 27.7,-25.26 65.19,-37.89 112.46,-37.89 45.63,0 82.71,12.63 111.23,37.89 28.52,25.26 42.79,59.08 42.79,101.46 0,42.37 -13.86,76.61 -41.56,102.68 -27.71,26.08 -65.19,39.12 -112.46,39.12zm985.25 1474.22c-117.35,0 -220.44,-25.27 -309.27,-75.8 -88.83,-50.53 -157.28,-122.65 -205.37,-216.36 -48.08,-93.72 -72.12,-202.51 -72.12,-326.38 0,-125.5 24.04,-235.11 72.12,-328.82 48.09,-93.73 116.54,-165.85 205.37,-216.37 88.83,-50.53 191.92,-75.79 309.27,-75.79 117.36,0 220.45,25.26 309.28,75.79 88.82,50.53 157.28,122.65 205.36,216.37 48.09,93.72 72.12,203.32 72.12,328.82 0,123.87 -24.03,232.67 -72.12,326.38 -48.08,93.72 -116.54,165.84 -205.36,216.36 -88.83,50.53 -191.92,75.8 -309.28,75.8zm0 -195.58c109.2,0 192.74,-35.87 250.6,-107.58 57.86,-71.71 86.79,-176.84 86.79,-315.38 0,-136.91 -29.34,-241.62 -88.01,-314.15 -58.68,-72.53 -141.8,-108.79 -249.38,-108.79 -107.57,0 -190.69,36.26 -249.37,108.79 -58.68,72.53 -88.01,177.25 -88.01,314.15 0,138.54 28.93,243.67 86.79,315.38 57.86,71.71 141.39,107.58 250.59,107.58zm1657.59 178.47c-37.48,0 -67.23,-10.59 -89.24,-31.78 -22,-21.2 -33.01,-49.72 -33.01,-85.57l0 -1491.34c0,-37.48 11.41,-68.04 34.23,-91.68 22.82,-23.63 52.97,-35.46 90.46,-35.46 39.12,0 70.09,11.41 92.91,34.24 22.82,22.81 34.23,53.78 34.23,92.9l0 1398.43 743.23 0c37.48,0 66.41,8.96 86.79,26.89 20.38,17.93 30.56,44.01 30.56,78.24 0,34.23 -10.18,60.31 -30.56,78.24 -20.38,17.93 -49.31,26.89 -86.79,26.89l-872.8 0zm1699.13 17.12c-117.35,0 -220.44,-25.27 -309.27,-75.8 -88.83,-50.53 -157.28,-122.65 -205.37,-216.36 -48.08,-93.72 -72.12,-202.51 -72.12,-326.38 0,-125.5 24.04,-235.11 72.12,-328.82 48.09,-93.73 116.54,-165.85 205.37,-216.37 88.83,-50.53 191.92,-75.79 309.27,-75.79 117.36,0 220.45,25.26 309.28,75.79 88.82,50.53 157.28,122.65 205.36,216.37 48.09,93.72 72.12,203.32 72.12,328.82 0,123.87 -24.03,232.67 -72.12,326.38 -48.08,93.72 -116.54,165.84 -205.36,216.36 -88.83,50.53 -191.92,75.8 -309.28,75.8zm0 -195.58c109.2,0 192.74,-35.87 250.6,-107.58 57.86,-71.71 86.79,-176.84 86.79,-315.38 0,-136.91 -29.34,-241.62 -88.01,-314.15 -58.68,-72.53 -141.8,-108.79 -249.38,-108.79 -107.57,0 -190.69,36.26 -249.37,108.79 -58.68,72.53 -88.01,177.25 -88.01,314.15 0,138.54 28.93,243.67 86.79,315.38 57.86,71.71 141.39,107.58 250.59,107.58zm51.34 -1175.96c-13.04,11.41 -28.52,17.11 -46.45,17.11 -17.93,0 -33.83,-6.52 -47.68,-19.56 -13.85,-13.04 -20.79,-28.52 -20.79,-46.45 0,-16.3 5.71,-30.97 17.12,-44.01l264.04 -344.71c32.6,-44.01 70.08,-66.01 112.46,-66.01 30.97,0 57.05,10.59 78.24,31.78 21.19,21.2 31.78,46.46 31.78,75.8 0,37.48 -19.56,72.53 -58.67,105.13l-330.05 290.93zm1449.78 132.02c102.68,0 194.36,26.08 275.04,78.24 80.67,52.15 143.43,125.49 188.25,220.03 44.82,94.53 67.23,203.74 67.23,327.6 0,122.25 -22,229.81 -66.01,322.72 -44,92.91 -106.35,164.62 -187.02,215.14 -80.68,50.53 -173.18,75.8 -277.49,75.8 -89.65,0 -168.69,-19.16 -237.15,-57.46 -68.45,-38.3 -120.62,-93.31 -156.47,-165.03l0 545.19c0,34.23 -11,61.53 -33.01,81.9 -21.99,20.38 -50.92,30.56 -86.79,30.56 -37.48,0 -68.04,-10.59 -91.68,-31.78 -23.63,-21.19 -35.45,-49.72 -35.45,-85.57l0 -1432.66c0,-35.86 11.4,-64.79 34.23,-86.79 22.81,-22 52.96,-33.01 90.46,-33.01 35.86,0 65.19,11 88.01,33.01 22.81,22 34.23,50.93 34.23,86.79l0 100.24c35.86,-71.72 88.02,-127.13 156.47,-166.24 68.45,-39.12 147.5,-58.68 237.15,-58.68zm-58.68 1043.94c107.58,0 190.7,-36.26 249.38,-108.79 58.67,-72.53 88.01,-175.62 88.01,-309.28 0,-135.28 -29.75,-240.4 -89.24,-315.37 -59.49,-74.98 -142.2,-112.46 -248.15,-112.46 -107.57,0 -190.29,36.66 -248.15,110.01 -57.86,73.34 -86.79,177.66 -86.79,312.93 0,135.28 28.93,239.59 86.79,312.93 57.86,73.35 140.58,110.02 248.15,110.02zm1796.94 -122.25c22.81,0 41.56,8.96 56.23,26.89 14.67,17.93 22,40.75 22,68.45 0,47.27 -29.34,87.2 -88.02,119.8 -57.04,32.6 -119.39,57.86 -187.03,75.79 -67.63,17.94 -132.42,26.9 -194.36,26.9 -189.07,0 -338.2,-55.01 -447.4,-165.03 -109.2,-110.02 -163.81,-260.38 -163.81,-451.07 0,-122.25 24.04,-230.63 72.12,-325.17 48.09,-94.53 115.73,-167.87 202.92,-220.03 87.2,-52.15 186.22,-78.24 297.04,-78.24 159.73,0 286.04,51.34 378.95,154.02 92.91,102.68 139.35,241.22 139.35,415.61 0,65.19 -29.34,97.79 -88.01,97.79l-755.45 0c16.3,252.64 137.72,378.95 364.28,378.95 60.31,0 112.46,-8.14 156.46,-24.44 44.01,-16.3 90.46,-37.49 139.35,-63.57 4.9,-3.26 18.34,-10.19 40.34,-20.79 22,-10.59 40.34,-15.89 55.01,-15.89zm-425.4 -740.78c-94.53,0 -170.32,30.15 -227.37,90.46 -57.04,60.31 -91.27,145.06 -102.68,254.26l630.76 0c-4.9,-110.83 -33.01,-195.99 -84.35,-255.48 -51.33,-59.49 -123.46,-89.24 -216.36,-89.24zm1650.24 850.79c35.86,0 63.16,8.56 81.9,25.67 18.75,17.12 28.11,40.34 28.11,69.68 0,29.33 -9.36,52.56 -28.11,69.67 -18.75,17.12 -46.05,25.67 -81.9,25.67l-836.12 0c-35.86,0 -64.39,-10.18 -85.57,-30.56 -21.19,-20.38 -31.78,-46.05 -31.78,-77.02 0,-30.97 12.22,-61.12 36.66,-90.46l679.66 -804.34 -613.65 0c-34.23,0 -60.72,-8.55 -79.45,-25.66 -18.75,-17.12 -28.12,-40.34 -28.12,-69.68 0,-29.34 9.37,-52.56 28.12,-69.67 18.74,-17.12 45.23,-25.67 79.45,-25.67l811.68 0c34.23,0 62.34,10.59 84.34,31.78 22,21.2 33.01,46.46 33.01,75.79 0,30.97 -12.22,61.13 -36.67,90.46l-679.65 804.34 638.09 0z"/>
    <g>
     <path class="fil2" d="M4379.2 3785.05l35.86 179.83 43.73 -171.95 251.54 -854.05 88.29 0 248.29 854.05 42.91 173.58 38.3 -181.72 209.17 -845.9 100.51 0 -296.91 1158.84 -93.98 0 -262.68 -906.48 -29.34 -114.63 -28.8 114.63 -268.92 906.48 -93.72 0 -296.1 -1158.84 100.24 0 211.62 846.17zm1533.97 328.97c-73.34,0 -139.35,-17.93 -198.58,-54.06 -59.21,-36.13 -105.13,-86.38 -137.99,-151.03 -32.87,-64.39 -49.44,-136.64 -49.44,-216.77l0 -34.23c0,-82.86 16.02,-157.29 48.08,-223.84 32.05,-66.28 76.88,-118.43 134.2,-156.2 57.32,-38.04 119.24,-57.05 186.08,-57.05 104.57,0 187.43,35.59 248.82,107.03 61.39,71.44 91.81,168.96 91.81,292.83l0 53.24 -614.19 0 0 18.2c0,97.79 27.98,179.29 83.94,244.48 55.95,64.92 126.31,97.52 211.34,97.52 50.79,0 95.89,-9.23 134.73,-27.98 39.12,-18.75 74.44,-48.63 106.21,-89.65l59.77 45.37c-70.08,101.32 -171.68,152.12 -304.79,152.12zm-17.65 -811.68c-71.44,0 -131.75,26.35 -180.93,78.78 -49.16,52.43 -79.05,122.79 -89.64,211.34l516.67 0 0 -10.33c-2.72,-82.58 -26.35,-149.95 -70.9,-201.83 -44.55,-51.88 -102.96,-77.96 -175.21,-77.96zm1218.87 373.78c0,134.19 -29.61,240.95 -89.09,319.73 -59.49,78.78 -139.35,118.17 -239.59,118.17 -119.8,0 -210.52,-44.82 -272.19,-134.19l-3.8 117.89 -89.09 0 0 -1222.4 94.52 0 0 486.25c60.58,-93.72 150.22,-140.72 268.93,-140.72 101.87,0 182.54,38.85 241.77,116.54 58.95,77.96 88.55,186.08 88.55,324.35l0 14.39zm-95.34 -16.57c0,-113.55 -22,-201.02 -66.28,-262.96 -44.01,-61.66 -105.95,-92.63 -186.08,-92.63 -61.12,0 -112.74,14.95 -155.11,44.83 -42.65,30.15 -74.7,73.88 -96.44,131.74l0 388.18c47.81,108.12 132.02,162.18 253.18,162.18 78.5,0 139.9,-30.97 184.17,-93.17 44.28,-61.94 66.56,-154.84 66.56,-278.16z"/>
     <path class="fil1" d="M7743.53 4097.72l0 -1158.84 323.8 0c95.08,0 180.1,21.73 255.35,64.92 75.51,43.2 134.19,105.13 176.29,185.81 42.37,80.67 63.29,172.49 63.29,275.45l0 106.48c0,103.5 -20.92,195.32 -62.75,275.45 -41.84,80.14 -101.05,142.07 -177.11,185.53 -76.06,43.47 -163.53,65.19 -262.14,65.19l-316.73 0zm97.79 -1075.72l0 992.59 219.76 0c121.97,0 219.76,-40.48 293.65,-121.43 73.62,-80.95 110.56,-190.42 110.56,-328.42l0 -101.86c0,-133.11 -36.4,-239.87 -109.2,-320 -72.53,-80.14 -168.42,-120.34 -287.13,-120.88l-227.64 0zm1280.81 1092.01c-73.34,0 -139.35,-17.93 -198.58,-54.06 -59.21,-36.13 -105.13,-86.38 -137.99,-151.03 -32.87,-64.39 -49.44,-136.64 -49.44,-216.77l0 -34.23c0,-82.86 16.02,-157.29 48.08,-223.84 32.05,-66.28 76.88,-118.43 134.2,-156.2 57.32,-38.04 119.24,-57.05 186.08,-57.05 104.57,0 187.43,35.59 248.82,107.03 61.39,71.44 91.81,168.96 91.81,292.83l0 53.24 -614.19 0 0 18.2c0,97.79 27.98,179.29 83.94,244.48 55.95,64.92 126.31,97.52 211.34,97.52 50.79,0 95.89,-9.23 134.73,-27.98 39.12,-18.75 74.44,-48.63 106.21,-89.65l59.77 45.37c-70.08,101.32 -171.68,152.12 -304.79,152.12zm-17.65 -811.68c-71.44,0 -131.75,26.35 -180.93,78.78 -49.16,52.43 -79.05,122.79 -89.64,211.34l516.67 0 0 -10.33c-2.72,-82.58 -26.35,-149.95 -70.9,-201.83 -44.55,-51.88 -102.96,-77.96 -175.21,-77.96zm783.97 664.17l261.59 -729.37 98.07 0 -321.63 860.57 -77.15 0 -322.98 -860.57 97.79 0 264.31 729.37zm839.1 147.51c-73.34,0 -139.35,-17.93 -198.58,-54.06 -59.21,-36.13 -105.13,-86.38 -137.99,-151.03 -32.87,-64.39 -49.44,-136.64 -49.44,-216.77l0 -34.23c0,-82.86 16.02,-157.29 48.08,-223.84 32.05,-66.28 76.88,-118.43 134.2,-156.2 57.32,-38.04 119.24,-57.05 186.08,-57.05 104.57,0 187.43,35.59 248.82,107.03 61.39,71.44 91.81,168.96 91.81,292.83l0 53.24 -614.19 0 0 18.2c0,97.79 27.98,179.29 83.94,244.48 55.95,64.92 126.31,97.52 211.34,97.52 50.79,0 95.89,-9.23 134.73,-27.98 39.12,-18.75 74.44,-48.63 106.21,-89.65l59.77 45.37c-70.08,101.32 -171.68,152.12 -304.79,152.12zm-17.65 -811.68c-71.44,0 -131.75,26.35 -180.93,78.78 -49.16,52.43 -79.05,122.79 -89.64,211.34l516.67 0 0 -10.33c-2.72,-82.58 -26.35,-149.95 -70.9,-201.83 -44.55,-51.88 -102.96,-77.96 -175.21,-77.96zm632.66 795.38l-95.62 0 0 -1222.4 95.62 0 0 1222.4zm206.18 -443.06c0,-82.85 16.03,-157.28 48.09,-223.56 32.05,-66.55 77.42,-118.17 136.1,-154.83 58.67,-36.95 124.95,-55.42 199.39,-55.42 114.36,0 207.26,40.21 278.44,120.62 71.17,80.41 106.76,186.89 106.76,319.73l0 19.82c0,83.4 -16.3,158.1 -48.35,224.92 -32.05,66.56 -77.15,117.89 -135.55,154.02 -58.4,36.13 -124.96,54.06 -199.66,54.06 -114.09,0 -207,-40.2 -278.16,-120.61 -71.44,-80.41 -107.03,-186.9 -107.03,-319.74l0 -19.01zm95.35 26.62c0,102.96 26.61,187.71 80.13,253.72 53.24,66 123.05,99.14 209.71,99.14 85.84,0 155.39,-33.14 208.63,-99.14 53.52,-66.01 80.13,-153.21 80.13,-261.6l0 -18.2c0,-66 -12.22,-126.31 -36.66,-180.91 -24.45,-54.6 -58.68,-96.97 -102.69,-126.86 -44,-30.15 -94.26,-45.1 -151.03,-45.1 -85.03,0 -154.3,33.42 -207.81,99.96 -53.52,66.56 -80.41,153.76 -80.41,261.6l0 17.38zm1561.96 -5.16c0,134.19 -29.62,240.95 -89.11,319.73 -59.49,78.78 -139.08,118.17 -238.77,118.17 -117.63,0 -207.81,-41.29 -270.56,-124.14l0 438.7 -94.8 0 0 -1191.44 88.55 0 4.62 121.43c62.21,-91.81 152.13,-137.72 269.74,-137.72 102.96,0 183.91,39.12 242.31,117.08 58.68,77.96 88.02,186.08 88.02,324.61l0 13.58zm-95.35 -16.3c0,-109.75 -22.55,-196.67 -67.63,-260.24 -45.1,-63.83 -108.12,-95.62 -188.79,-95.62 -58.41,0 -108.4,14.13 -150.22,42.1 -42.1,28.25 -74.16,69.01 -96.44,122.79l0 413.17c22.82,49.44 55.42,87.2 97.79,113.01 42.65,26.07 92.64,39.11 150.5,39.11 80.13,0 142.61,-32.05 187.43,-95.89 44.82,-64.11 67.37,-156.74 67.37,-278.44zm640.27 454.19c-73.34,0 -139.35,-17.93 -198.58,-54.06 -59.21,-36.13 -105.13,-86.38 -137.99,-151.03 -32.87,-64.39 -49.44,-136.64 -49.44,-216.77l0 -34.23c0,-82.86 16.02,-157.29 48.08,-223.84 32.05,-66.28 76.88,-118.43 134.2,-156.2 57.32,-38.04 119.24,-57.05 186.08,-57.05 104.57,0 187.43,35.59 248.82,107.03 61.39,71.44 91.81,168.96 91.81,292.83l0 53.24 -614.19 0 0 18.2c0,97.79 27.98,179.29 83.94,244.48 55.95,64.92 126.31,97.52 211.34,97.52 50.79,0 95.89,-9.23 134.73,-27.98 39.12,-18.75 74.44,-48.63 106.21,-89.65l59.77 45.37c-70.08,101.32 -171.68,152.12 -304.79,152.12zm-17.65 -811.68c-71.44,0 -131.75,26.35 -180.93,78.78 -49.16,52.43 -79.05,122.79 -89.64,211.34l516.67 0 0 -10.33c-2.72,-82.58 -26.35,-149.95 -70.9,-201.83 -44.55,-51.88 -102.96,-77.96 -175.21,-77.96zm923.32 15.49c-20.1,-3.81 -41.56,-5.71 -64.38,-5.71 -59.5,0 -109.75,16.57 -150.77,49.71 -41.02,33.14 -70.36,81.23 -88.02,144.52l0 591.37 -94.52 0 0 -860.57 92.9 0 1.63 136.37c50.54,-101.87 131.48,-152.67 242.85,-152.67 26.62,0 47.54,3.53 62.76,10.33l-2.45 86.66z"/>
    </g>
   </g>
  </g>
 </g>
</svg>
