<?xml version="1.0" encoding="UTF-8"?>
<!DOCTYPE svg PUBLIC "-//W3C//DTD SVG 1.1//EN" "http://www.w3.org/Graphics/SVG/1.1/DTD/svg11.dtd">
<!-- Creator: CorelDRAW 2020 (64-Bit) -->
<svg xmlns="http://www.w3.org/2000/svg" xml:space="preserve" width="20mm" height="6.9562mm" version="1.1" style="shape-rendering:geometricPrecision; text-rendering:geometricPrecision; image-rendering:optimizeQuality; fill-rule:evenodd; clip-rule:evenodd"
viewBox="0 0 228.31 79.41"
 xmlns:xlink="http://www.w3.org/1999/xlink"
 xmlns:xodm="http://www.corel.com/coreldraw/odm/2003">
 <defs>
  <style type="text/css">
   <![CDATA[
    .fil3 {fill:black;fill-rule:nonzero}
    .fil0 {fill:url(#id0)}
    .fil2 {fill:url(#id1)}
    .fil1 {fill:url(#id2)}
   ]]>
  </style>
  <linearGradient id="id0" gradientUnits="userSpaceOnUse" x1="17.09" y1="-8.56" x2="77.52" y2="36.23">
   <stop offset="0" style="stop-opacity:0.619608; stop-color:#669933"/>
   <stop offset="1" style="stop-opacity:1; stop-color:#666766"/>
  </linearGradient>
  <linearGradient id="id1" gradientUnits="userSpaceOnUse" x1="2.95" y1="76.65" x2="34.21" y2="7.44">
   <stop offset="0" style="stop-opacity:1; stop-color:#B9E8FF"/>
   <stop offset="1" style="stop-opacity:1; stop-color:#000066"/>
  </linearGradient>
  <linearGradient id="id2" gradientUnits="userSpaceOnUse" x1="90.03" y1="36.09" x2="18.29" y2="71.47">
   <stop offset="0" style="stop-opacity:1; stop-color:yellow"/>
   <stop offset="1" style="stop-opacity:1; stop-color:#9A5400"/>
  </linearGradient>
 </defs>
 <g id="Capa_x0020_1">
  <metadata id="CorelCorpID_0Corel-Layer"/>
  <g id="_2108470361440">
   <g>
    <path class="fil0" d="M30.72 50.69c15.34,8.63 34.83,4.02 44.61,-10.66 0.68,-5.05 -0.9,-10.37 -4.77,-14.23l-20.88 -20.88c-6.5,-6.5 -17.1,-6.56 -23.68,-0.19 15.28,3.32 26.54,16.94 26.54,32.98 0,11.3 -12.12,18.26 -21.82,12.98z"/>
    <path class="fil1" d="M30.39 50.51c-9.78,-5.65 -9.76,-19.63 -0.33,-25.39 -11.88,7.04 -17.98,20.36 -16.28,33.41l12.02 12.02c6.56,6.56 17.3,6.56 23.87,0l20.88 -20.88c2.7,-2.7 4.29,-6.11 4.77,-9.64 -9.87,14.81 -29.57,19.35 -44.94,10.48z"/>
    <path class="fil2" d="M30.39 24.93c9.78,-5.65 21.88,1.36 22.15,12.41 -0.18,-15.9 -11.4,-29.32 -26.54,-32.61l-0.19 0.19 -20.88 20.88c-6.56,6.56 -6.56,17.3 0,23.87l8.86 8.86c-1.72,-13.18 4.52,-26.63 16.61,-33.6z"/>
   </g>
   <g>
    <path class="fil3" d="M127.81 47.16l0 10.01 -38.18 0 0 -53.05 38.18 0 0 10.01 -27.27 0 0 11.13 26.15 0 0 10.01 -26.15 0 0 11.88 27.27 0zm53.27 10.01l-12.63 0 -9.94 -20.1 -10.46 0 0 20.1 -10.91 0 0 -53.05 24.06 0c5.63,0 9.99,1.52 13.08,4.56 3.09,3.04 4.63,7.05 4.63,12.03 0,3.59 -0.81,6.7 -2.43,9.34 -1.62,2.64 -3.95,4.58 -6.99,5.83l11.58 21.29zm-14.79 -31.79c1.15,-1.12 1.72,-2.68 1.72,-4.67 0,-1.99 -0.59,-3.59 -1.76,-4.78 -1.17,-1.2 -2.85,-1.79 -5.04,-1.79l-13.15 0 0 12.93 13.15 0c2.24,0 3.93,-0.56 5.08,-1.68zm32.13 1.68l11.81 0c2.39,0 4.18,-0.57 5.38,-1.72 1.2,-1.15 1.79,-2.71 1.79,-4.71 0,-1.99 -0.6,-3.57 -1.79,-4.74 -1.2,-1.17 -2.99,-1.76 -5.38,-1.76l-11.81 0 0 12.93zm0 10.01l0 20.1 -10.91 0 0 -53.05 22.71 0c6.08,0 10.61,1.52 13.6,4.56 2.99,3.04 4.48,7.02 4.48,11.95 0,4.88 -1.53,8.84 -4.59,11.88 -3.06,3.04 -7.56,4.56 -13.49,4.56l-11.81 0z"/>
    <path class="fil3" d="M99.72 74.21c0,0.5 -0.29,0.75 -0.86,0.75 -0.81,0.26 -1.67,0.39 -2.59,0.39 -2,0 -3.59,-0.54 -4.79,-1.62 -1.19,-1.08 -1.79,-2.5 -1.79,-4.25 0,-1.82 0.64,-3.29 1.93,-4.39 1.19,-1.03 2.63,-1.55 4.32,-1.55 0.49,0 0.95,0.05 1.37,0.14 0.08,0 0.17,0 0.25,0 0.56,0 0.84,0.29 0.84,0.85 0,0.46 -0.27,0.68 -0.82,0.68 -0.16,0 -0.39,-0.08 -0.7,-0.23 -0.31,-0.08 -0.62,-0.13 -0.95,-0.13 -1.35,0 -2.47,0.43 -3.38,1.29 -0.9,0.86 -1.36,1.97 -1.36,3.33 0,1.33 0.44,2.42 1.32,3.25 0.93,0.87 2.17,1.3 3.73,1.3 0.67,0 1.29,-0.08 1.86,-0.25l0 -2.09 -2.59 0c-0.17,0.07 -0.3,0.11 -0.39,0.11 -0.24,0 -0.44,-0.07 -0.6,-0.21 -0.16,-0.14 -0.24,-0.31 -0.24,-0.53 0,-0.19 0.07,-0.37 0.21,-0.53 0.14,-0.16 0.33,-0.25 0.57,-0.26 0.08,0 0.26,0.03 0.52,0.09l2.95 0c0.17,-0.05 0.3,-0.07 0.39,-0.07 0.2,0 0.38,0.07 0.53,0.21 0.15,0.14 0.22,0.33 0.22,0.57 0,0.13 -0.04,0.26 -0.11,0.39l0 2.43c0.08,0.2 0.13,0.3 0.13,0.3zm8.93 -0.48c0,0.39 -0.18,0.64 -0.55,0.73 -0.95,0.6 -1.94,0.89 -2.96,0.89 -1.27,0 -2.32,-0.39 -3.13,-1.16 -0.82,-0.77 -1.22,-1.78 -1.22,-3.02 0,-1.19 0.35,-2.17 1.06,-2.93 0.71,-0.76 1.64,-1.14 2.79,-1.14 1.27,0 2.24,0.45 2.89,1.36 0.45,0.63 0.68,1.29 0.68,1.96 0,0.31 -0.04,0.51 -0.12,0.61 -0.11,0.13 -0.35,0.2 -0.71,0.2l-5.12 0c0,0.86 0.27,1.54 0.82,2.06 0.55,0.52 1.23,0.78 2.05,0.78 0.74,0 1.41,-0.19 2,-0.57 0.17,-0.32 0.42,-0.48 0.77,-0.48 0.23,0 0.41,0.07 0.55,0.21 0.14,0.14 0.21,0.31 0.21,0.5zm-1.95 -3.79c-0.08,-0.41 -0.27,-0.74 -0.57,-1.02 -0.38,-0.36 -0.87,-0.54 -1.48,-0.54 -0.62,0 -1.16,0.19 -1.61,0.57 -0.36,0.31 -0.57,0.64 -0.62,0.98l4.28 0zm8.43 2.62c0,0.77 -0.31,1.43 -0.92,1.97 -0.61,0.54 -1.37,0.81 -2.28,0.81 -1.02,0 -1.87,-0.27 -2.55,-0.8 -0.17,0 -0.3,-0.08 -0.41,-0.23 -0.11,-0.15 -0.16,-0.33 -0.16,-0.52 0,-0.21 0.07,-0.39 0.22,-0.54 0.15,-0.14 0.34,-0.21 0.58,-0.21 0.44,0 0.72,0.21 0.84,0.62 0.41,0.26 0.89,0.39 1.46,0.39 0.49,0 0.9,-0.15 1.24,-0.45 0.34,-0.3 0.51,-0.65 0.51,-1.05 0,-0.56 -0.34,-0.97 -1.04,-1.23 -0.63,-0.2 -1.26,-0.41 -1.89,-0.62 -0.69,-0.32 -1.04,-0.83 -1.04,-1.54 0,-0.63 0.24,-1.14 0.73,-1.54 0.43,-0.36 0.94,-0.54 1.54,-0.54 0.64,0 1.2,0.18 1.68,0.55 0.32,0.06 0.48,0.31 0.48,0.75 0,0.44 -0.27,0.66 -0.8,0.66 -0.18,0 -0.34,-0.06 -0.48,-0.18 -0.14,-0.12 -0.21,-0.25 -0.21,-0.39 -0.15,-0.07 -0.37,-0.11 -0.64,-0.11 -0.55,0 -0.82,0.26 -0.82,0.79 0,0.23 0.14,0.4 0.43,0.54 0.12,0.06 0.39,0.15 0.82,0.27 0.86,0.24 1.49,0.51 1.89,0.82 0.55,0.43 0.82,1.02 0.82,1.77zm5.41 -4.51c0,0.41 -0.24,0.62 -0.73,0.62 -0.17,0 -0.32,-0.02 -0.45,-0.07l-0.52 0 0 5.55c0.08,0.11 0.12,0.24 0.12,0.41 0,0.19 -0.1,0.34 -0.29,0.44 -0.2,0.1 -0.4,0.15 -0.62,0.15 -0.55,0 -0.82,-0.21 -0.82,-0.62 0,-0.09 0.05,-0.23 0.14,-0.39l0 -5.54 -0.62 0c-0.21,0.05 -0.36,0.07 -0.43,0.07 -0.48,0 -0.71,-0.23 -0.71,-0.68 0,-0.49 0.22,-0.73 0.68,-0.73 0.04,0 0.16,0.02 0.37,0.05l0.71 0 0 -1.82c-0.06,-0.18 -0.09,-0.3 -0.09,-0.36 0,-0.19 0.09,-0.34 0.26,-0.46 0.17,-0.11 0.36,-0.17 0.56,-0.17 0.56,0 0.84,0.22 0.84,0.66 0,0.13 -0.04,0.27 -0.11,0.41l0 1.73 0.52 0c0.24,-0.04 0.4,-0.05 0.48,-0.05 0.46,0 0.7,0.26 0.7,0.79zm2.95 -2.79c0,0.26 -0.1,0.48 -0.29,0.66 -0.19,0.18 -0.42,0.27 -0.7,0.27 -0.29,0 -0.53,-0.09 -0.72,-0.27 -0.2,-0.18 -0.29,-0.4 -0.29,-0.66 0,-0.25 0.1,-0.46 0.29,-0.64 0.2,-0.18 0.43,-0.27 0.71,-0.27 0.29,0 0.52,0.09 0.71,0.26 0.19,0.17 0.29,0.39 0.29,0.65zm-0.11 2.7c0,0.05 -0.05,0.19 -0.14,0.43l0 5.73c0.07,0.18 0.11,0.29 0.11,0.34 0,0.19 -0.08,0.36 -0.25,0.49 -0.17,0.14 -0.36,0.2 -0.59,0.2 -0.25,0 -0.45,-0.07 -0.61,-0.2 -0.15,-0.14 -0.23,-0.3 -0.23,-0.49 0,-0.15 0.04,-0.29 0.11,-0.41l0 -5.64c-0.09,-0.23 -0.14,-0.38 -0.14,-0.45 0,-0.43 0.29,-0.64 0.86,-0.64 0.59,0 0.89,0.21 0.89,0.64zm7.93 -4.41c0,0.44 -0.21,0.7 -0.64,0.77l-1.5 0.98c-0.13,0.37 -0.42,0.55 -0.87,0.55 -0.48,0 -0.71,-0.27 -0.71,-0.8 0,-0.44 0.26,-0.7 0.77,-0.77l1.46 -0.95c0.12,-0.35 0.37,-0.52 0.77,-0.52 0.49,0 0.73,0.24 0.73,0.73zm2.07 7.71c0,1.11 -0.38,2.05 -1.14,2.84 -0.83,0.83 -1.9,1.25 -3.2,1.25 -1.26,0 -2.3,-0.39 -3.12,-1.18 -0.82,-0.79 -1.22,-1.76 -1.22,-2.91 0,-1.16 0.39,-2.13 1.18,-2.91 0.82,-0.83 1.87,-1.25 3.14,-1.25 1.37,0 2.45,0.42 3.25,1.27 0.74,0.78 1.11,1.74 1.11,2.89zm-1.46 0c0,-0.74 -0.24,-1.39 -0.73,-1.95 -0.55,-0.62 -1.26,-0.93 -2.14,-0.93 -0.84,0 -1.54,0.29 -2.07,0.86 -0.54,0.57 -0.8,1.24 -0.8,2.02 0,0.76 0.27,1.42 0.8,1.97 0.54,0.55 1.22,0.83 2.05,0.83 0.86,0 1.56,-0.29 2.11,-0.86 0.52,-0.54 0.79,-1.18 0.79,-1.95zm9.6 3.3c0,0.39 -0.27,0.59 -0.82,0.59 -0.57,0 -0.86,-0.2 -0.86,-0.59 0,-0.19 0.04,-0.34 0.11,-0.46l0 -4.2c0,-0.5 -0.02,-0.83 -0.05,-0.98 -0.09,-0.36 -0.32,-0.54 -0.66,-0.54 -0.44,0 -0.96,0.23 -1.55,0.7 -0.5,0.39 -0.92,0.83 -1.27,1.3l0 3.77c0.06,0.12 0.09,0.24 0.09,0.38 0,0.42 -0.28,0.62 -0.84,0.62 -0.52,0 -0.79,-0.2 -0.79,-0.61 0,-0.17 0.02,-0.3 0.07,-0.39l0 -5.84c-0.06,-0.16 -0.09,-0.27 -0.09,-0.36 0,-0.43 0.27,-0.64 0.82,-0.64 0.56,0 0.84,0.2 0.84,0.59 0,0.13 -0.04,0.25 -0.11,0.36l0 0.45c0.88,-1.07 1.83,-1.61 2.86,-1.61 0.85,0 1.41,0.24 1.71,0.71 0.29,0.47 0.44,1.31 0.44,2.51l0 3.8c0.07,0.14 0.11,0.29 0.11,0.45zm13.84 -0.84c0,0.39 -0.18,0.64 -0.55,0.73 -0.95,0.6 -1.94,0.89 -2.96,0.89 -1.27,0 -2.32,-0.39 -3.13,-1.16 -0.82,-0.77 -1.22,-1.78 -1.22,-3.02 0,-1.19 0.35,-2.17 1.06,-2.93 0.71,-0.76 1.64,-1.14 2.79,-1.14 1.27,0 2.24,0.45 2.89,1.36 0.45,0.63 0.68,1.29 0.68,1.96 0,0.31 -0.04,0.51 -0.12,0.61 -0.11,0.13 -0.34,0.2 -0.71,0.2l-5.12 0c0,0.86 0.27,1.54 0.82,2.06 0.55,0.52 1.23,0.78 2.05,0.78 0.74,0 1.4,-0.19 2,-0.57 0.17,-0.32 0.42,-0.48 0.77,-0.48 0.23,0 0.41,0.07 0.55,0.21 0.14,0.14 0.21,0.31 0.21,0.5zm-1.95 -3.79c-0.08,-0.41 -0.27,-0.74 -0.57,-1.02 -0.38,-0.36 -0.87,-0.54 -1.48,-0.54 -0.62,0 -1.15,0.19 -1.61,0.57 -0.36,0.31 -0.57,0.64 -0.62,0.98l4.28 0zm13.48 4.59c0,0.42 -0.28,0.62 -0.84,0.62 -0.59,0 -0.89,-0.21 -0.89,-0.62 0,-0.11 0.04,-0.26 0.12,-0.45l0 -3.84c0,-0.81 -0.02,-1.29 -0.05,-1.43 -0.06,-0.29 -0.24,-0.43 -0.54,-0.43 -0.73,0 -1.51,0.69 -2.36,2.07l0 3.61c0.09,0.17 0.14,0.32 0.14,0.46 0,0.42 -0.29,0.62 -0.86,0.62 -0.57,0 -0.86,-0.21 -0.86,-0.62 0,-0.13 0.04,-0.28 0.11,-0.45l0 -3.84c0,-0.77 -0.02,-1.24 -0.05,-1.41 -0.07,-0.3 -0.26,-0.45 -0.55,-0.45 -0.66,0 -1.43,0.69 -2.34,2.07l0 3.64c0.07,0.12 0.11,0.25 0.11,0.39 0,0.44 -0.28,0.66 -0.84,0.66 -0.55,0 -0.82,-0.21 -0.82,-0.64 0,-0.09 0.03,-0.21 0.09,-0.36l0 -5.79c-0.07,-0.29 -0.11,-0.41 -0.11,-0.37 0,-0.21 0.09,-0.38 0.26,-0.5 0.17,-0.12 0.37,-0.18 0.58,-0.18 0.54,0 0.8,0.21 0.8,0.62 0,0.11 -0.02,0.21 -0.07,0.32l0 0.43c0.63,-1.06 1.41,-1.59 2.34,-1.59 1.18,0 1.81,0.53 1.89,1.59 0.7,-1.06 1.53,-1.59 2.48,-1.59 0.87,0 1.45,0.27 1.75,0.82 0.24,0.43 0.36,1.23 0.36,2.39l0 3.75c0.1,0.17 0.14,0.32 0.14,0.46zm9.46 -3.21c0,1.27 -0.39,2.29 -1.18,3.03 -0.7,0.67 -1.58,1 -2.64,1 -0.24,0 -0.46,-0.03 -0.66,-0.09 -0.63,0 -0.95,-0.28 -0.95,-0.84 0,-0.18 0.06,-0.33 0.19,-0.46 0.12,-0.12 0.28,-0.19 0.46,-0.19 0.19,0 0.34,0.08 0.46,0.23 0.1,0.04 0.26,0.05 0.48,0.05 0.58,0 1.1,-0.21 1.55,-0.64 0.55,-0.52 0.82,-1.25 0.82,-2.18 0,-0.93 -0.26,-1.66 -0.79,-2.2 -0.44,-0.44 -0.96,-0.66 -1.55,-0.66 -0.59,0 -1.11,0.23 -1.55,0.7 -0.52,0.54 -0.79,1.26 -0.79,2.18l0 7.09c0.08,0.17 0.12,0.31 0.12,0.43 0,0.18 -0.09,0.33 -0.28,0.45 -0.18,0.12 -0.38,0.18 -0.58,0.18 -0.24,0 -0.43,-0.06 -0.59,-0.18 -0.16,-0.12 -0.23,-0.26 -0.23,-0.43 0,-0.14 0.03,-0.27 0.09,-0.39l0 -10.05c-0.08,-0.38 -0.13,-0.54 -0.13,-0.48 0,-0.37 0.28,-0.55 0.84,-0.55 0.55,0 0.82,0.14 0.82,0.41 0,0.12 -0.02,0.23 -0.07,0.34l0 0.25c0.5,-0.81 1.27,-1.21 2.32,-1.21 1.05,0 1.93,0.37 2.66,1.11 0.77,0.79 1.16,1.82 1.16,3.11zm6.5 -3.39c0,0.19 -0.08,0.35 -0.23,0.49 -0.15,0.14 -0.35,0.21 -0.59,0.21 -0.27,0 -0.49,-0.08 -0.64,-0.23 -0.71,0.13 -1.38,0.73 -2,1.79l0 4.05c0.06,0.12 0.09,0.24 0.09,0.38 0,0.17 -0.09,0.3 -0.28,0.4 -0.18,0.1 -0.37,0.15 -0.54,0.15 -0.54,0 -0.8,-0.2 -0.8,-0.59 0,-0.15 0.02,-0.28 0.07,-0.37l0 -5.95c-0.06,-0.15 -0.09,-0.26 -0.09,-0.32 0,-0.41 0.27,-0.61 0.8,-0.61 0.21,0 0.4,0.05 0.56,0.16 0.16,0.11 0.24,0.23 0.24,0.36 0,0.17 -0.02,0.3 -0.05,0.41l0 0.12c0.64,-0.84 1.4,-1.27 2.27,-1.27 0.32,0 0.6,0.08 0.84,0.23 0.24,0.15 0.36,0.35 0.36,0.59zm8.61 5.8c0,0.39 -0.18,0.64 -0.55,0.73 -0.95,0.6 -1.94,0.89 -2.96,0.89 -1.27,0 -2.32,-0.39 -3.13,-1.16 -0.82,-0.77 -1.22,-1.78 -1.22,-3.02 0,-1.19 0.35,-2.17 1.06,-2.93 0.71,-0.76 1.64,-1.14 2.79,-1.14 1.27,0 2.24,0.45 2.89,1.36 0.45,0.63 0.68,1.29 0.68,1.96 0,0.31 -0.04,0.51 -0.12,0.61 -0.11,0.13 -0.34,0.2 -0.71,0.2l-5.12 0c0,0.86 0.27,1.54 0.82,2.06 0.55,0.52 1.23,0.78 2.05,0.78 0.74,0 1.4,-0.19 2,-0.57 0.17,-0.32 0.42,-0.48 0.77,-0.48 0.23,0 0.41,0.07 0.55,0.21 0.14,0.14 0.21,0.31 0.21,0.5zm-1.95 -3.79c-0.08,-0.41 -0.27,-0.74 -0.57,-1.02 -0.38,-0.36 -0.87,-0.54 -1.48,-0.54 -0.62,0 -1.16,0.19 -1.61,0.57 -0.36,0.31 -0.57,0.64 -0.62,0.98l4.28 0zm8.43 2.62c0,0.77 -0.31,1.43 -0.92,1.97 -0.61,0.54 -1.37,0.81 -2.28,0.81 -1.02,0 -1.87,-0.27 -2.55,-0.8 -0.17,0 -0.3,-0.08 -0.41,-0.23 -0.11,-0.15 -0.16,-0.33 -0.16,-0.52 0,-0.21 0.07,-0.39 0.22,-0.54 0.15,-0.14 0.34,-0.21 0.58,-0.21 0.44,0 0.72,0.21 0.84,0.62 0.41,0.26 0.89,0.39 1.46,0.39 0.49,0 0.9,-0.15 1.24,-0.45 0.34,-0.3 0.51,-0.65 0.51,-1.05 0,-0.56 -0.35,-0.97 -1.04,-1.23 -0.63,-0.2 -1.26,-0.41 -1.89,-0.62 -0.69,-0.32 -1.04,-0.83 -1.04,-1.54 0,-0.63 0.24,-1.14 0.73,-1.54 0.43,-0.36 0.94,-0.54 1.54,-0.54 0.64,0 1.2,0.18 1.68,0.55 0.32,0.06 0.48,0.31 0.48,0.75 0,0.44 -0.27,0.66 -0.8,0.66 -0.18,0 -0.34,-0.06 -0.48,-0.18 -0.14,-0.12 -0.21,-0.25 -0.21,-0.39 -0.15,-0.07 -0.37,-0.11 -0.64,-0.11 -0.55,0 -0.82,0.26 -0.82,0.79 0,0.23 0.14,0.4 0.43,0.54 0.12,0.06 0.39,0.15 0.82,0.27 0.86,0.24 1.49,0.51 1.89,0.82 0.55,0.43 0.82,1.02 0.82,1.77zm8.48 2.07c0,0.12 -0.09,0.23 -0.28,0.35 -0.18,0.11 -0.37,0.17 -0.54,0.17 -0.55,0 -0.82,-0.12 -0.82,-0.37 0,-0.05 0.05,-0.18 0.14,-0.41l-0.02 -0.37c-0.2,0.4 -0.52,0.73 -0.95,0.98 -0.43,0.25 -0.91,0.37 -1.42,0.37 -1.04,0 -1.92,-0.36 -2.64,-1.09 -0.79,-0.77 -1.18,-1.79 -1.18,-3.05 0,-1.25 0.39,-2.26 1.16,-3.04 0.71,-0.71 1.6,-1.07 2.64,-1.07 1.14,0 1.94,0.45 2.39,1.34l0.02 -0.32c-0.08,-0.3 -0.13,-0.43 -0.13,-0.39 0,-0.27 0.26,-0.41 0.79,-0.41 0.56,0 0.84,0.15 0.84,0.45 0,0.18 -0.04,0.34 -0.11,0.48l0 5.86c0.07,0.19 0.11,0.37 0.11,0.54zm-1.57 -3.39c0,-0.98 -0.26,-1.72 -0.77,-2.23 -0.42,-0.42 -0.93,-0.63 -1.55,-0.63 -0.59,0 -1.12,0.22 -1.57,0.66 -0.52,0.52 -0.79,1.24 -0.79,2.16 0,0.92 0.27,1.64 0.8,2.18 0.45,0.45 0.96,0.68 1.54,0.68 0.7,0 1.26,-0.22 1.66,-0.66 0.45,-0.49 0.68,-1.21 0.68,-2.16zm8.3 -3.32c0,0.19 -0.08,0.35 -0.23,0.49 -0.16,0.14 -0.35,0.21 -0.59,0.21 -0.27,0 -0.49,-0.08 -0.64,-0.23 -0.71,0.13 -1.38,0.73 -2,1.79l0 4.05c0.06,0.12 0.09,0.24 0.09,0.38 0,0.17 -0.09,0.3 -0.28,0.4 -0.18,0.1 -0.37,0.15 -0.54,0.15 -0.54,0 -0.8,-0.2 -0.8,-0.59 0,-0.15 0.02,-0.28 0.07,-0.37l0 -5.95c-0.06,-0.15 -0.09,-0.26 -0.09,-0.32 0,-0.41 0.27,-0.61 0.8,-0.61 0.21,0 0.4,0.05 0.56,0.16 0.16,0.11 0.24,0.23 0.24,0.36 0,0.17 -0.02,0.3 -0.05,0.41l0 0.12c0.64,-0.84 1.4,-1.27 2.27,-1.27 0.32,0 0.6,0.08 0.84,0.23 0.24,0.15 0.36,0.35 0.36,0.59zm2.7 -2.66c0,0.26 -0.1,0.48 -0.29,0.66 -0.19,0.18 -0.42,0.27 -0.7,0.27 -0.29,0 -0.53,-0.09 -0.72,-0.27 -0.2,-0.18 -0.29,-0.4 -0.29,-0.66 0,-0.25 0.1,-0.46 0.29,-0.64 0.2,-0.18 0.43,-0.27 0.71,-0.27 0.29,0 0.52,0.09 0.71,0.26 0.19,0.17 0.29,0.39 0.29,0.65zm-0.11 2.7c0,0.05 -0.05,0.19 -0.14,0.43l0 5.73c0.07,0.18 0.11,0.29 0.11,0.34 0,0.19 -0.08,0.36 -0.25,0.49 -0.17,0.14 -0.36,0.2 -0.59,0.2 -0.25,0 -0.45,-0.07 -0.61,-0.2 -0.16,-0.14 -0.23,-0.3 -0.23,-0.49 0,-0.15 0.04,-0.29 0.11,-0.41l0 -5.64c-0.09,-0.23 -0.14,-0.38 -0.14,-0.45 0,-0.43 0.29,-0.64 0.86,-0.64 0.59,0 0.89,0.21 0.89,0.64zm9.05 6.68c0,0.12 -0.09,0.23 -0.28,0.35 -0.18,0.11 -0.37,0.17 -0.54,0.17 -0.55,0 -0.82,-0.12 -0.82,-0.37 0,-0.05 0.05,-0.18 0.14,-0.41l-0.02 -0.37c-0.2,0.4 -0.52,0.73 -0.96,0.98 -0.43,0.25 -0.91,0.37 -1.42,0.37 -1.04,0 -1.92,-0.36 -2.64,-1.09 -0.79,-0.77 -1.18,-1.79 -1.18,-3.05 0,-1.25 0.39,-2.26 1.16,-3.04 0.71,-0.71 1.6,-1.07 2.64,-1.07 1.14,0 1.94,0.45 2.39,1.34l0.02 -0.32c-0.08,-0.3 -0.12,-0.43 -0.12,-0.39 0,-0.27 0.26,-0.41 0.79,-0.41 0.56,0 0.84,0.15 0.84,0.45 0,0.18 -0.04,0.34 -0.11,0.48l0 5.86c0.07,0.19 0.11,0.37 0.11,0.54zm-1.57 -3.39c0,-0.98 -0.26,-1.72 -0.77,-2.23 -0.42,-0.42 -0.93,-0.63 -1.55,-0.63 -0.59,0 -1.12,0.22 -1.57,0.66 -0.52,0.52 -0.79,1.24 -0.79,2.16 0,0.92 0.27,1.64 0.8,2.18 0.45,0.45 0.96,0.68 1.53,0.68 0.7,0 1.26,-0.22 1.66,-0.66 0.45,-0.49 0.68,-1.21 0.68,-2.16zm5.02 3.2c0,0.2 -0.08,0.37 -0.25,0.51 -0.17,0.14 -0.37,0.2 -0.61,0.2 -0.24,0 -0.44,-0.07 -0.61,-0.2 -0.17,-0.13 -0.25,-0.3 -0.25,-0.52 0,-0.05 0.04,-0.18 0.13,-0.41l0 -9.2c-0.1,-0.19 -0.14,-0.33 -0.14,-0.43 0,-0.21 0.1,-0.39 0.3,-0.52 0.17,-0.11 0.36,-0.16 0.57,-0.16 0.57,0 0.86,0.23 0.86,0.68 0,0.08 -0.04,0.22 -0.13,0.41l0 9.23c0.08,0.25 0.13,0.38 0.13,0.39z"/>
   </g>
  </g>
 </g>
</svg>
